<svg xmlns="http://www.w3.org/2000/svg" xmlns:xlink="http://www.w3.org/1999/xlink" contentStyleType="text/css" data-diagram-type="DESCRIPTION" height="947.5px" preserveAspectRatio="none" style="width:1242px;height:947px;background:#FFFFFF;" version="1.1" viewBox="0 0 1242 947" width="1242.5px" zoomAndPan="magnify"><defs/><g><!--entity Core--><g class="entity" data-entity="Core" data-source-line="6" data-uid="ent0002" id="entity_Core"><path d="M578.75,7.5 L640.365,7.5 A4.6875,4.6875 0 0 1 643.49,10.625 L652.24,35.3711 L818.2825,35.3711 A3.125,3.125 0 0 1 821.4075,38.4961 L821.4075,73.8672 A3.125,3.125 0 0 1 818.2825,76.9922 L578.75,76.9922 A3.125,3.125 0 0 1 575.625,73.8672 L575.625,10.625 A3.125,3.125 0 0 1 578.75,7.5" fill="#F1F1F1" style="stroke:#181818;stroke-width:0.625;"/><line style="stroke:#181818;stroke-width:0.625;" x1="575.625" x2="652.24" y1="35.3711" y2="35.3711"/><text fill="#000000" font-family="sans-serif" font-size="17.5" font-weight="bold" lengthAdjust="spacing" textLength="45.365" x="588.125" y="27.4939">Core</text><text fill="#000000" font-family="sans-serif" font-size="17.5" lengthAdjust="spacing" textLength="208.2825" x="588.125" y="60.365">Errors.AspNetCore.Core</text></g><!--entity Mappers--><g class="entity" data-entity="Mappers" data-source-line="7" data-uid="ent0003" id="entity_Mappers"><path d="M358.125,378.75 L459.5679,378.75 A4.6875,4.6875 0 0 1 462.6929,381.875 L471.4429,406.6211 L631.8884,406.6211 A3.125,3.125 0 0 1 635.0134,409.7461 L635.0134,445.1172 A3.125,3.125 0 0 1 631.8884,448.2422 L358.125,448.2422 A3.125,3.125 0 0 1 355,445.1172 L355,381.875 A3.125,3.125 0 0 1 358.125,378.75" fill="#F1F1F1" style="stroke:#181818;stroke-width:0.625;"/><line style="stroke:#181818;stroke-width:0.625;" x1="355" x2="471.4429" y1="406.6211" y2="406.6211"/><text fill="#000000" font-family="sans-serif" font-size="17.5" font-weight="bold" lengthAdjust="spacing" textLength="85.1929" x="367.5" y="398.7439">Mappers</text><text fill="#000000" font-family="sans-serif" font-size="17.5" lengthAdjust="spacing" textLength="242.5134" x="367.5" y="431.615">Errors.AspNetCore.Mappers</text></g><!--entity Registry--><g class="entity" data-entity="Registry" data-source-line="8" data-uid="ent0004" id="entity_Registry"><path d="M358.125,153.75 L457.0642,153.75 A4.6875,4.6875 0 0 1 460.1892,156.875 L468.9392,181.6211 L629.1968,181.6211 A3.125,3.125 0 0 1 632.3218,184.7461 L632.3218,220.1172 A3.125,3.125 0 0 1 629.1968,223.2422 L358.125,223.2422 A3.125,3.125 0 0 1 355,220.1172 L355,156.875 A3.125,3.125 0 0 1 358.125,153.75" fill="#F1F1F1" style="stroke:#181818;stroke-width:0.625;"/><line style="stroke:#181818;stroke-width:0.625;" x1="355" x2="468.9392" y1="181.6211" y2="181.6211"/><text fill="#000000" font-family="sans-serif" font-size="17.5" font-weight="bold" lengthAdjust="spacing" textLength="82.6892" x="367.5" y="173.7439">Registry</text><text fill="#000000" font-family="sans-serif" font-size="17.5" lengthAdjust="spacing" textLength="239.8218" x="367.5" y="206.615">Errors.AspNetCore.Registry</text></g><!--entity Sanitization--><g class="entity" data-entity="Sanitization" data-source-line="9" data-uid="ent0005" id="entity_Sanitization"><path d="M171.875,545 L306.1987,545 A4.6875,4.6875 0 0 1 309.3237,548.125 L318.0737,572.8711 L473.4607,572.8711 A3.125,3.125 0 0 1 476.5857,575.9961 L476.5857,611.3672 A3.125,3.125 0 0 1 473.4607,614.4922 L171.875,614.4922 A3.125,3.125 0 0 1 168.75,611.3672 L168.75,548.125 A3.125,3.125 0 0 1 171.875,545" fill="#F1F1F1" style="stroke:#181818;stroke-width:0.625;"/><line style="stroke:#181818;stroke-width:0.625;" x1="168.75" x2="318.0737" y1="572.8711" y2="572.8711"/><text fill="#000000" font-family="sans-serif" font-size="17.5" font-weight="bold" lengthAdjust="spacing" textLength="118.0737" x="181.25" y="564.9939">Sanitization</text><text fill="#000000" font-family="sans-serif" font-size="17.5" lengthAdjust="spacing" textLength="270.3357" x="181.25" y="597.865">Errors.AspNetCore.Sanitization</text></g><!--entity Formatters--><g class="entity" data-entity="Formatters" data-source-line="10" data-uid="ent0006" id="entity_Formatters"><path d="M731.25,261.25 L857.7979,261.25 A4.6875,4.6875 0 0 1 860.9229,264.375 L869.6729,289.1211 L1026.4355,289.1211 A3.125,3.125 0 0 1 1029.5605,292.2461 L1029.5605,327.6172 A3.125,3.125 0 0 1 1026.4355,330.7422 L731.25,330.7422 A3.125,3.125 0 0 1 728.125,327.6172 L728.125,264.375 A3.125,3.125 0 0 1 731.25,261.25" fill="#F1F1F1" style="stroke:#181818;stroke-width:0.625;"/><line style="stroke:#181818;stroke-width:0.625;" x1="728.125" x2="869.6729" y1="289.1211" y2="289.1211"/><text fill="#000000" font-family="sans-serif" font-size="17.5" font-weight="bold" lengthAdjust="spacing" textLength="110.2979" x="740.625" y="281.2439">Formatters</text><text fill="#000000" font-family="sans-serif" font-size="17.5" lengthAdjust="spacing" textLength="263.9355" x="740.625" y="314.115">Errors.AspNetCore.Formatters</text></g><!--entity Enrichers--><g class="entity" data-entity="Enrichers" data-source-line="11" data-uid="ent0007" id="entity_Enrichers"><path d="M923.125,153.75 L1032.1643,153.75 A4.6875,4.6875 0 0 1 1035.2893,156.875 L1044.0393,181.6211 L1203.7671,181.6211 A3.125,3.125 0 0 1 1206.8921,184.7461 L1206.8921,220.1172 A3.125,3.125 0 0 1 1203.7671,223.2422 L923.125,223.2422 A3.125,3.125 0 0 1 920,220.1172 L920,156.875 A3.125,3.125 0 0 1 923.125,153.75" fill="#F1F1F1" style="stroke:#181818;stroke-width:0.625;"/><line style="stroke:#181818;stroke-width:0.625;" x1="920" x2="1044.0393" y1="181.6211" y2="181.6211"/><text fill="#000000" font-family="sans-serif" font-size="17.5" font-weight="bold" lengthAdjust="spacing" textLength="92.7893" x="932.5" y="173.7439">Enrichers</text><text fill="#000000" font-family="sans-serif" font-size="17.5" lengthAdjust="spacing" textLength="249.3921" x="932.5" y="206.615">Errors.AspNetCore.Enrichers</text></g><!--entity Observability--><g class="entity" data-entity="Observability" data-source-line="12" data-uid="ent0008" id="entity_Observability"><path d="M941.875,368.75 L1089.9561,368.75 A4.6875,4.6875 0 0 1 1093.0811,371.875 L1101.8311,396.6211 L1230.6946,396.6211 A3.125,3.125 0 0 1 1233.8196,399.7461 L1233.8196,455.4883 A3.125,3.125 0 0 1 1230.6946,458.6133 L941.875,458.6133 A3.125,3.125 0 0 1 938.75,455.4883 L938.75,371.875 A3.125,3.125 0 0 1 941.875,368.75" fill="#F1F1F1" style="stroke:#181818;stroke-width:0.625;"/><line style="stroke:#181818;stroke-width:0.625;" x1="938.75" x2="1101.8311" y1="396.6211" y2="396.6211"/><text fill="#000000" font-family="sans-serif" font-size="17.5" font-weight="bold" lengthAdjust="spacing" textLength="131.8311" x="951.25" y="388.7439">Observability</text><text fill="#000000" font-family="sans-serif" font-size="17.5" font-style="italic" lengthAdjust="spacing" textLength="94.2249" x="1032.9224" y="421.615">&#171;external&#187;</text><text fill="#000000" font-family="sans-serif" font-size="17.5" lengthAdjust="spacing" textLength="257.5696" x="951.25" y="441.9861">Observability.OpenTelemetry</text></g><!--entity Abstractions--><g class="entity" data-entity="Abstractions" data-source-line="13" data-uid="ent0009" id="entity_Abstractions"><path d="M589.375,535 L730.5518,535 A4.6875,4.6875 0 0 1 733.6768,538.125 L742.4268,562.8711 L787.8918,562.8711 A3.125,3.125 0 0 1 791.0168,565.9961 L791.0168,621.7383 A3.125,3.125 0 0 1 787.8918,624.8633 L589.375,624.8633 A3.125,3.125 0 0 1 586.25,621.7383 L586.25,538.125 A3.125,3.125 0 0 1 589.375,535" fill="#F1F1F1" style="stroke:#181818;stroke-width:0.625;"/><line style="stroke:#181818;stroke-width:0.625;" x1="586.25" x2="742.4268" y1="562.8711" y2="562.8711"/><text fill="#000000" font-family="sans-serif" font-size="17.5" font-weight="bold" lengthAdjust="spacing" textLength="124.9268" x="598.75" y="554.9939">Abstractions</text><text fill="#000000" font-family="sans-serif" font-size="17.5" font-style="italic" lengthAdjust="spacing" textLength="94.2249" x="635.271" y="587.865">&#171;external&#187;</text><text fill="#000000" font-family="sans-serif" font-size="17.5" lengthAdjust="spacing" textLength="167.2668" x="598.75" y="608.2361">Errors.Abstractions</text></g><!--entity MicrosoftExtensionsHosting--><g class="entity" data-entity="MicrosoftExtensionsHosting" data-source-line="24" data-uid="ent0019" id="entity_MicrosoftExtensionsHosting"><ellipse cx="322.5" cy="757.5" fill="#F1F1F1" rx="10" ry="10" style="stroke:#181818;stroke-width:0.625;"/><text fill="#000000" font-family="sans-serif" font-size="17.5" lengthAdjust="spacing" textLength="242.2656" x="201.3672" y="794.9939">MicrosoftExtensionsHosting</text></g><g class="entity" data-entity="GMN22" data-source-line="28" data-uid="ent0023" id="entity_GMN22"><path d="M7.5,870 L7.5,939.248 A0,0 0 0 0 7.5,939.248 L637.5787,939.248 A0,0 0 0 0 637.5787,939.248 L637.5787,882.5 L625.0787,870 L327.5,870 L322.5,769.1375 L317.5,870 L7.5,870 A0,0 0 0 0 7.5,870" fill="#FEFFDD" style="stroke:#181818;stroke-width:0.625;"/><path d="M625.0787,870 L625.0787,882.5 L637.5787,882.5 L625.0787,870" fill="#FEFFDD" style="stroke:#181818;stroke-width:0.625;"/><text fill="#000000" font-family="sans-serif" font-size="16.25" lengthAdjust="spacing" textLength="529.0851" x="15" y="891.3336">Core hosts GlobalExceptionHandler + ExceptionMapperResolver.</text><text fill="#000000" font-family="sans-serif" font-size="16.25" lengthAdjust="spacing" textLength="603.8287" x="15" y="910.2496">Registry orders mapper strategies discovered in the Mappers namespace.</text><text fill="#000000" font-family="sans-serif" font-size="16.25" lengthAdjust="spacing" textLength="531.759" x="15" y="929.1656">Sanitization/Formatters/Enrichers supply cross-cutting behaviors.</text></g><!--link Core to Mappers--><g class="link" data-entity-1="Core" data-entity-2="Mappers" data-source-line="15" data-uid="lnk10" id="link_Core_Mappers"><path d="M694.95,77.525 C689.7,114.95 678,176.275 653.75,223.75 C622.5875,284.7625 573.7519,365.8799 537.4644,401.1674" fill="none" id="Core-to-Mappers" style="stroke:#181818;stroke-width:1.25;stroke-dasharray:8.75,8.75;"/><polygon fill="#181818" points="532.0875,406.3961,543.6386,402.1376,536.5682,402.0388,536.667,394.9685,532.0875,406.3961" style="stroke:#181818;stroke-width:1.25;"/></g><!--link Core to Formatters--><g class="link" data-entity-1="Core" data-entity-2="Formatters" data-source-line="16" data-uid="lnk11" id="link_Core_Formatters"><path d="M723.025,77.6375 C757.375,125.5875 815.4569,206.6533 849.9194,254.7533" fill="none" id="Core-to-Formatters" style="stroke:#181818;stroke-width:1.25;stroke-dasharray:8.75,8.75;"/><polygon fill="#181818" points="854.2875,260.85,851.7998,248.7929,850.6474,255.7694,843.6709,254.6171,854.2875,260.85" style="stroke:#181818;stroke-width:1.25;"/></g><!--link Core to Enrichers--><g class="link" data-entity-1="Core" data-entity-2="Enrichers" data-source-line="17" data-uid="lnk12" id="link_Core_Enrichers"><path d="M784.7875,77.6375 C843.0625,100.5875 912.7714,128.0398 970.9964,150.9648" fill="none" id="Core-to-Enrichers" style="stroke:#181818;stroke-width:1.25;stroke-dasharray:8.75,8.75;"/><polygon fill="#181818" points="977.975,153.7125,969.3389,144.9386,972.1595,151.4228,965.6754,154.2434,977.975,153.7125" style="stroke:#181818;stroke-width:1.25;"/></g><!--link Core to Registry--><g class="link" data-entity-1="Core" data-entity-2="Registry" data-source-line="18" data-uid="lnk13" id="link_Core_Registry"><path d="M650.1625,77.8125 C617.4875,100.7375 580.728,154.3773 548.128,177.2398" fill="none" id="Core-to-Registry" style="stroke:#181818;stroke-width:1.25;stroke-dasharray:8.75,8.75;"/><polygon fill="#181818" points="541.9875,181.5461,554.0691,179.1802,547.1046,177.9575,548.3273,170.9929,541.9875,181.5461" style="stroke:#181818;stroke-width:1.25;"/></g><!--link Core to Sanitization--><g class="link" data-entity-1="Core" data-entity-2="Sanitization" data-source-line="19" data-uid="lnk14" id="link_Core_Sanitization"><path d="M575.525,64.8125 C481.2375,83.7125 362.4375,114.475 332.5,153.75 C242.575,271.7375 285.5387,472.8095 309.0762,551.022" fill="none" id="Core-to-Sanitization" style="stroke:#181818;stroke-width:1.25;stroke-dasharray:8.75,8.75;"/><polygon fill="#181818" points="311.2375,558.2038,312.7834,545.9902,309.4364,552.2189,303.2076,548.8719,311.2375,558.2038" style="stroke:#181818;stroke-width:1.25;"/></g><!--link Mappers to Sanitization--><g class="link" data-entity-1="Mappers" data-entity-2="Sanitization" data-source-line="20" data-uid="lnk15" id="link_Mappers_Sanitization"><path d="M459.2625,448.925 C429.65,477.0375 393.2269,539.4825 363.6394,567.57" fill="none" id="Mappers-to-Sanitization" style="stroke:#181818;stroke-width:1.25;stroke-dasharray:8.75,8.75;"/><polygon fill="#181818" points="358.2,572.7336,369.8015,568.6144,362.7328,568.4306,362.9167,561.3619,358.2,572.7336" style="stroke:#181818;stroke-width:1.25;"/></g><!--link Registry to Mappers--><g class="link" data-entity-1="Registry" data-entity-2="Mappers" data-source-line="21" data-uid="lnk16" id="link_Registry_Mappers"><path d="M493.9375,223.7875 C494.175,265.6125 494.5326,356.7962 494.7701,398.7587" fill="none" id="Registry-to-Mappers" style="stroke:#181818;stroke-width:1.25;stroke-dasharray:8.75,8.75;"/><polygon fill="#181818" points="494.8125,406.2586,499.7487,394.9805,494.7771,400.0087,489.7489,395.0371,494.8125,406.2586" style="stroke:#181818;stroke-width:1.25;"/></g><!--link Enrichers to Observability--><g class="link" data-entity-1="Enrichers" data-entity-2="Observability" data-source-line="22" data-uid="lnk17" id="link_Enrichers_Observability"><path d="M1067.1625,223.7875 C1071.075,262.45 1076.7328,318.4256 1081.0328,360.9381" fill="none" id="Enrichers-to-Observability" style="stroke:#181818;stroke-width:1.25;stroke-dasharray:8.75,8.75;"/><polygon fill="#181818" points="1081.7875,368.4,1085.63,356.7039,1081.1585,362.1817,1075.6808,357.7103,1081.7875,368.4" style="stroke:#181818;stroke-width:1.25;"/></g><!--link Mappers to Abstractions--><g class="link" data-entity-1="Mappers" data-entity-2="Abstractions" data-source-line="23" data-uid="lnk18" id="link_Mappers_Abstractions"><path d="M535.15,448.925 C564.625,473.85 599.2098,503.0706 631.1348,530.0581" fill="none" id="Mappers-to-Abstractions" style="stroke:#181818;stroke-width:1.25;stroke-dasharray:8.75,8.75;"/><polygon fill="#181818" points="636.8625,534.9,631.4989,523.8188,632.0894,530.8651,625.0431,531.4557,636.8625,534.9" style="stroke:#181818;stroke-width:1.25;"/></g><!--link Sanitization to MicrosoftExtensionsHosting--><g class="link" data-entity-1="Sanitization" data-entity-2="MicrosoftExtensionsHosting" data-source-line="24" data-uid="lnk20" id="link_Sanitization_MicrosoftExtensionsHosting"><path d="M322.5,615.4125 C322.5,655.9875 322.5,713.825 322.5,738.7" fill="none" id="Sanitization-to-MicrosoftExtensionsHosting" style="stroke:#181818;stroke-width:1.25;stroke-dasharray:8.75,8.75;"/><polygon fill="#181818" points="322.5,746.2,327.5,734.95,322.5,739.95,317.5,734.95,322.5,746.2" style="stroke:#181818;stroke-width:1.25;"/><text fill="#000000" font-family="sans-serif" font-size="16.25" lengthAdjust="spacing" textLength="111.8219" x="323.75" y="678.8336">env detection</text></g><!--link Formatters to Abstractions--><g class="link" data-entity-1="Formatters" data-entity-2="Abstractions" data-source-line="25" data-uid="lnk21" id="link_Formatters_Abstractions"><path d="M788.85,331.4375 C771.9125,341.2875 755.775,353.6 743.75,368.75 C705.575,416.875 694.2943,481.3726 690.7193,527.3226" fill="none" id="Formatters-to-Abstractions" style="stroke:#181818;stroke-width:1.25;stroke-dasharray:8.75,8.75;"/><polygon fill="#181818" points="690.1375,534.8,695.9951,523.9717,690.6223,528.5688,686.0252,523.1961,690.1375,534.8" style="stroke:#181818;stroke-width:1.25;"/><text fill="#000000" font-family="sans-serif" font-size="16.25" lengthAdjust="spacing" textLength="170.0458" x="745" y="419.4586">codes via extensions</text></g><!--SRC=[VLF1RjmW4Btp5QDSSeZYj3bMqKfLkcqkIQgaFp26YPS60uA9bUtN5_0Qsrh95mJ3Us_cFUDB-8to7Ji2fR4BsCER2z3ZtxHQx2bwb1GRSScQ3S4-11TYyptw9-9x5mYkgy2FKK34TsqzPYa_thpoCL43IKRR6Le0bDVmzVQB42SaN9mrQF9o0HWXRxQ0Z-WzXLYmf_qM_8Kw7JaS2tuwR15UqMhM_v2riuMqB6mHVxhG8_CqstpS8krjqF8mSUfffZotaSA0hJQQZysp9_k73FKqMLhTmzqTVQQM5irkTzwsJTvHPXzZksLXJHNbepVDhaPS2mjVjJRFNKirwbfPvNYIFR-OUAlcLRzKLvPNIaj3OYaxgcaPN7Hll4z6RSoW1nTPsmw-0Ta1534LifXDdkach7IA8WmQWQgI4DOnGUkONI-WF6Cu9Fa8lunhqUm_9Vciy81M6Gfm1RKqUdYXwCn0eKdq6eCBAa_H5mJaCJXTfVPAH-aIcXHe2toWAQtvXyv2onHkPbitSwJnmtjpX9nDl9OVN09fwO23pgz6a5MGlVq7]--></g></svg>