<svg xmlns="http://www.w3.org/2000/svg" xmlns:xlink="http://www.w3.org/1999/xlink" contentStyleType="text/css" data-diagram-type="CLASS" height="790px" preserveAspectRatio="none" style="width:5375px;height:790px;background:#FFFFFF;" version="1.1" viewBox="0 0 5375 790" width="5375px" zoomAndPan="magnify"><defs/><g><!--class IExceptionProblemDetailsMapper--><g class="entity" data-entity="IExceptionProblemDetailsMapper" data-source-line="7" data-uid="ent0002" id="entity_IExceptionProblemDetailsMapper"><rect fill="#F1F1F1" height="111.0742" rx="3.125" ry="3.125" style="stroke:#181818;stroke-width:0.625;" width="586.4673" x="1788.125" y="671.25"/><ellipse cx="1930.7953" cy="696.416" fill="#B4A7E5" rx="13.75" ry="13.75" style="stroke:#181818;stroke-width:1.25;"/><path d="M1925.6976,691.123 L1925.6976,688.4277 L1934.9359,688.4277 L1934.9359,691.123 L1931.85,691.123 L1931.85,701.2207 L1934.9359,701.2207 L1934.9359,703.916 L1925.6976,703.916 L1925.6976,701.2207 L1928.7836,701.2207 L1928.7836,691.123 L1925.6976,691.123 Z " fill="#000000"/><text fill="#000000" font-family="sans-serif" font-size="15" font-style="italic" lengthAdjust="spacing" textLength="81.0791" x="2061.1316" y="691.4233">&#171;strategy&#187;</text><text fill="#000000" font-family="sans-serif" font-size="17.5" font-style="italic" lengthAdjust="spacing" textLength="290.5017" x="1956.4203" y="711.2048">IExceptionProblemDetailsMapper</text><line style="stroke:#181818;stroke-width:0.625;" x1="1789.375" x2="2373.3423" y1="721.582" y2="721.582"/><line style="stroke:#181818;stroke-width:0.625;" x1="1789.375" x2="2373.3423" y1="731.582" y2="731.582"/><text fill="#000000" font-family="sans-serif" font-size="17.5" lengthAdjust="spacing" textLength="253.4424" x="1795.625" y="752.8259">+bool CanHandle(Exception)</text><text fill="#000000" font-family="sans-serif" font-size="17.5" lengthAdjust="spacing" textLength="571.4673" x="1795.625" y="773.197">+(HttpStatusCode, ProblemDetails) Map(HttpContext, Exception)</text></g><!--class ExceptionProblemDetailsMapper<TException>--><g class="entity" data-entity="ExceptionProblemDetailsMapper.TException." data-source-line="12" data-uid="ent0003" id="entity_ExceptionProblemDetailsMapper.TException."><rect fill="#F1F1F1" height="151.8164" rx="3.125" ry="3.125" style="stroke:#181818;stroke-width:0.625;" width="586.4673" x="1449.375" y="423.75"/><ellipse cx="1531.402" cy="448.916" fill="#A9DCDF" rx="13.75" ry="13.75" style="stroke:#181818;stroke-width:1.25;"/><path d="M1531.5387,443.0957 L1530.0934,449.4434 L1533.0035,449.4434 L1531.5387,443.0957 Z M1529.6832,440.3027 L1533.4137,440.3027 L1537.6129,455.791 L1534.5465,455.791 L1533.5895,451.9629 L1529.4879,451.9629 L1528.5504,455.791 L1525.5035,455.791 L1529.6832,440.3027 Z " fill="#000000"/><text fill="#000000" font-family="sans-serif" font-size="15" font-style="italic" lengthAdjust="spacing" textLength="86.228" x="1719.8071" y="443.9233">&#171;template&#187;</text><text fill="#000000" font-family="sans-serif" font-size="17.5" font-style="italic" lengthAdjust="spacing" textLength="411.7883" x="1557.027" y="463.7048">ExceptionProblemDetailsMapper&lt;TException&gt;</text><line style="stroke:#181818;stroke-width:0.625;" x1="1450.625" x2="2034.5923" y1="474.082" y2="474.082"/><text fill="#000000" font-family="sans-serif" font-size="17.5" lengthAdjust="spacing" textLength="256.7834" x="1456.875" y="495.3259">-IExceptionSanitizer Sanitizer</text><line style="stroke:#181818;stroke-width:0.625;" x1="1450.625" x2="2034.5923" y1="504.4531" y2="504.4531"/><text fill="#000000" font-family="sans-serif" font-size="17.5" lengthAdjust="spacing" textLength="253.4424" x="1456.875" y="525.697">+bool CanHandle(Exception)</text><text fill="#000000" font-family="sans-serif" font-size="17.5" lengthAdjust="spacing" textLength="571.4673" x="1456.875" y="546.0681">+(HttpStatusCode, ProblemDetails) Map(HttpContext, Exception)</text><text fill="#000000" font-family="sans-serif" font-size="17.5" font-style="italic" lengthAdjust="spacing" textLength="334.3799" x="1456.875" y="566.4392">#MapTyped(HttpContext, TException)</text></g><!--class ValidationExceptionMapper--><g class="entity" data-entity="ValidationExceptionMapper" data-source-line="19" data-uid="ent0004" id="entity_ValidationExceptionMapper"><rect fill="#F1F1F1" height="70.332" rx="3.125" ry="3.125" style="stroke:#181818;stroke-width:0.625;" width="280.2063" x="8.75" y="261.875"/><ellipse cx="27.5" cy="287.041" fill="#ADD1B2" rx="13.75" ry="13.75" style="stroke:#181818;stroke-width:1.25;"/><path d="M31.2109,294.0918 Q30.4883,294.4629 29.6875,294.6387 Q28.8867,294.834 28.0078,294.834 Q24.8828,294.834 23.2227,292.7832 Q21.582,290.7129 21.582,286.8066 Q21.582,282.9004 23.2227,280.8301 Q24.8828,278.7598 28.0078,278.7598 Q28.8867,278.7598 29.6875,278.9551 Q30.5078,279.1504 31.2109,279.5215 L31.2109,282.9199 Q30.4297,282.1973 29.6875,281.8652 Q28.9453,281.5137 28.1641,281.5137 Q26.4844,281.5137 25.625,282.8613 Q24.7656,284.1895 24.7656,286.8066 Q24.7656,289.4238 25.625,290.7715 Q26.4844,292.0996 28.1641,292.0996 Q28.9453,292.0996 29.6875,291.7676 Q30.4297,291.416 31.2109,290.6934 L31.2109,294.0918 Z " fill="#000000"/><text fill="#000000" font-family="sans-serif" font-size="15" font-style="italic" lengthAdjust="spacing" textLength="81.0791" x="124.5636" y="282.0483">&#171;strategy&#187;</text><text fill="#000000" font-family="sans-serif" font-size="17.5" lengthAdjust="spacing" textLength="240.2063" x="45" y="301.8298">ValidationExceptionMapper</text><line style="stroke:#181818;stroke-width:0.625;" x1="10" x2="287.7063" y1="312.207" y2="312.207"/><line style="stroke:#181818;stroke-width:0.625;" x1="10" x2="287.7063" y1="322.207" y2="322.207"/></g><!--class DomainExceptionMapper--><g class="entity" data-entity="DomainExceptionMapper" data-source-line="20" data-uid="ent0005" id="entity_DomainExceptionMapper"><rect fill="#F1F1F1" height="70.332" rx="3.125" ry="3.125" style="stroke:#181818;stroke-width:0.625;" width="260.3394" x="332.5" y="261.875"/><ellipse cx="351.25" cy="287.041" fill="#ADD1B2" rx="13.75" ry="13.75" style="stroke:#181818;stroke-width:1.25;"/><path d="M354.9609,294.0918 Q354.2383,294.4629 353.4375,294.6387 Q352.6367,294.834 351.7578,294.834 Q348.6328,294.834 346.9727,292.7832 Q345.332,290.7129 345.332,286.8066 Q345.332,282.9004 346.9727,280.8301 Q348.6328,278.7598 351.7578,278.7598 Q352.6367,278.7598 353.4375,278.9551 Q354.2578,279.1504 354.9609,279.5215 L354.9609,282.9199 Q354.1797,282.1973 353.4375,281.8652 Q352.6953,281.5137 351.9141,281.5137 Q350.2344,281.5137 349.375,282.8613 Q348.5156,284.1895 348.5156,286.8066 Q348.5156,289.4238 349.375,290.7715 Q350.2344,292.0996 351.9141,292.0996 Q352.6953,292.0996 353.4375,291.7676 Q354.1797,291.416 354.9609,290.6934 L354.9609,294.0918 Z " fill="#000000"/><text fill="#000000" font-family="sans-serif" font-size="15" font-style="italic" lengthAdjust="spacing" textLength="81.0791" x="438.3801" y="282.0483">&#171;strategy&#187;</text><text fill="#000000" font-family="sans-serif" font-size="17.5" lengthAdjust="spacing" textLength="220.3394" x="368.75" y="301.8298">DomainExceptionMapper</text><line style="stroke:#181818;stroke-width:0.625;" x1="333.75" x2="591.5894" y1="312.207" y2="312.207"/><line style="stroke:#181818;stroke-width:0.625;" x1="333.75" x2="591.5894" y1="322.207" y2="322.207"/></g><!--class AuthorizationExceptionMapper--><g class="entity" data-entity="AuthorizationExceptionMapper" data-source-line="21" data-uid="ent0006" id="entity_AuthorizationExceptionMapper"><rect fill="#F1F1F1" height="70.332" rx="3.125" ry="3.125" style="stroke:#181818;stroke-width:0.625;" width="309.6436" x="636.25" y="261.875"/><ellipse cx="655" cy="287.041" fill="#ADD1B2" rx="13.75" ry="13.75" style="stroke:#181818;stroke-width:1.25;"/><path d="M658.7109,294.0918 Q657.9883,294.4629 657.1875,294.6387 Q656.3867,294.834 655.5078,294.834 Q652.3828,294.834 650.7227,292.7832 Q649.082,290.7129 649.082,286.8066 Q649.082,282.9004 650.7227,280.8301 Q652.3828,278.7598 655.5078,278.7598 Q656.3867,278.7598 657.1875,278.9551 Q658.0078,279.1504 658.7109,279.5215 L658.7109,282.9199 Q657.9297,282.1973 657.1875,281.8652 Q656.4453,281.5137 655.6641,281.5137 Q653.9844,281.5137 653.125,282.8613 Q652.2656,284.1895 652.2656,286.8066 Q652.2656,289.4238 653.125,290.7715 Q653.9844,292.0996 655.6641,292.0996 Q656.4453,292.0996 657.1875,291.7676 Q657.9297,291.416 658.7109,290.6934 L658.7109,294.0918 Z " fill="#000000"/><text fill="#000000" font-family="sans-serif" font-size="15" font-style="italic" lengthAdjust="spacing" textLength="81.0791" x="766.7822" y="282.0483">&#171;strategy&#187;</text><text fill="#000000" font-family="sans-serif" font-size="17.5" lengthAdjust="spacing" textLength="269.6436" x="672.5" y="301.8298">AuthorizationExceptionMapper</text><line style="stroke:#181818;stroke-width:0.625;" x1="637.5" x2="944.6436" y1="312.207" y2="312.207"/><line style="stroke:#181818;stroke-width:0.625;" x1="637.5" x2="944.6436" y1="322.207" y2="322.207"/></g><!--class RateLimitExceptionMapper--><g class="entity" data-entity="RateLimitExceptionMapper" data-source-line="22" data-uid="ent0007" id="entity_RateLimitExceptionMapper"><rect fill="#F1F1F1" height="70.332" rx="3.125" ry="3.125" style="stroke:#181818;stroke-width:0.625;" width="276.3269" x="990.625" y="261.875"/><ellipse cx="1009.375" cy="287.041" fill="#ADD1B2" rx="13.75" ry="13.75" style="stroke:#181818;stroke-width:1.25;"/><path d="M1013.0859,294.0918 Q1012.3633,294.4629 1011.5625,294.6387 Q1010.7617,294.834 1009.8828,294.834 Q1006.7578,294.834 1005.0977,292.7832 Q1003.457,290.7129 1003.457,286.8066 Q1003.457,282.9004 1005.0977,280.8301 Q1006.7578,278.7598 1009.8828,278.7598 Q1010.7617,278.7598 1011.5625,278.9551 Q1012.3828,279.1504 1013.0859,279.5215 L1013.0859,282.9199 Q1012.3047,282.1973 1011.5625,281.8652 Q1010.8203,281.5137 1010.0391,281.5137 Q1008.3594,281.5137 1007.5,282.8613 Q1006.6406,284.1895 1006.6406,286.8066 Q1006.6406,289.4238 1007.5,290.7715 Q1008.3594,292.0996 1010.0391,292.0996 Q1010.8203,292.0996 1011.5625,291.7676 Q1012.3047,291.416 1013.0859,290.6934 L1013.0859,294.0918 Z " fill="#000000"/><text fill="#000000" font-family="sans-serif" font-size="15" font-style="italic" lengthAdjust="spacing" textLength="81.0791" x="1104.4989" y="282.0483">&#171;strategy&#187;</text><text fill="#000000" font-family="sans-serif" font-size="17.5" lengthAdjust="spacing" textLength="236.3269" x="1026.875" y="301.8298">RateLimitExceptionMapper</text><line style="stroke:#181818;stroke-width:0.625;" x1="991.875" x2="1265.7019" y1="312.207" y2="312.207"/><line style="stroke:#181818;stroke-width:0.625;" x1="991.875" x2="1265.7019" y1="322.207" y2="322.207"/></g><!--class NotFoundExceptionMapper--><g class="entity" data-entity="NotFoundExceptionMapper" data-source-line="23" data-uid="ent0008" id="entity_NotFoundExceptionMapper"><rect fill="#F1F1F1" height="70.332" rx="3.125" ry="3.125" style="stroke:#181818;stroke-width:0.625;" width="277.1558" x="1311.25" y="261.875"/><ellipse cx="1330" cy="287.041" fill="#ADD1B2" rx="13.75" ry="13.75" style="stroke:#181818;stroke-width:1.25;"/><path d="M1333.7109,294.0918 Q1332.9883,294.4629 1332.1875,294.6387 Q1331.3867,294.834 1330.5078,294.834 Q1327.3828,294.834 1325.7227,292.7832 Q1324.082,290.7129 1324.082,286.8066 Q1324.082,282.9004 1325.7227,280.8301 Q1327.3828,278.7598 1330.5078,278.7598 Q1331.3867,278.7598 1332.1875,278.9551 Q1333.0078,279.1504 1333.7109,279.5215 L1333.7109,282.9199 Q1332.9297,282.1973 1332.1875,281.8652 Q1331.4453,281.5137 1330.6641,281.5137 Q1328.9844,281.5137 1328.125,282.8613 Q1327.2656,284.1895 1327.2656,286.8066 Q1327.2656,289.4238 1328.125,290.7715 Q1328.9844,292.0996 1330.6641,292.0996 Q1331.4453,292.0996 1332.1875,291.7676 Q1332.9297,291.416 1333.7109,290.6934 L1333.7109,294.0918 Z " fill="#000000"/><text fill="#000000" font-family="sans-serif" font-size="15" font-style="italic" lengthAdjust="spacing" textLength="81.0791" x="1425.5383" y="282.0483">&#171;strategy&#187;</text><text fill="#000000" font-family="sans-serif" font-size="17.5" lengthAdjust="spacing" textLength="237.1558" x="1347.5" y="301.8298">NotFoundExceptionMapper</text><line style="stroke:#181818;stroke-width:0.625;" x1="1312.5" x2="1587.1558" y1="312.207" y2="312.207"/><line style="stroke:#181818;stroke-width:0.625;" x1="1312.5" x2="1587.1558" y1="322.207" y2="322.207"/></g><!--class SqlExceptionMapper--><g class="entity" data-entity="SqlExceptionMapper" data-source-line="24" data-uid="ent0009" id="entity_SqlExceptionMapper"><rect fill="#F1F1F1" height="70.332" rx="3.125" ry="3.125" style="stroke:#181818;stroke-width:0.625;" width="219.5117" x="1632.5" y="261.875"/><ellipse cx="1651.25" cy="287.041" fill="#ADD1B2" rx="13.75" ry="13.75" style="stroke:#181818;stroke-width:1.25;"/><path d="M1654.9609,294.0918 Q1654.2383,294.4629 1653.4375,294.6387 Q1652.6367,294.834 1651.7578,294.834 Q1648.6328,294.834 1646.9727,292.7832 Q1645.332,290.7129 1645.332,286.8066 Q1645.332,282.9004 1646.9727,280.8301 Q1648.6328,278.7598 1651.7578,278.7598 Q1652.6367,278.7598 1653.4375,278.9551 Q1654.2578,279.1504 1654.9609,279.5215 L1654.9609,282.9199 Q1654.1797,282.1973 1653.4375,281.8652 Q1652.6953,281.5137 1651.9141,281.5137 Q1650.2344,281.5137 1649.375,282.8613 Q1648.5156,284.1895 1648.5156,286.8066 Q1648.5156,289.4238 1649.375,290.7715 Q1650.2344,292.0996 1651.9141,292.0996 Q1652.6953,292.0996 1653.4375,291.7676 Q1654.1797,291.416 1654.9609,290.6934 L1654.9609,294.0918 Z " fill="#000000"/><text fill="#000000" font-family="sans-serif" font-size="15" font-style="italic" lengthAdjust="spacing" textLength="81.0791" x="1717.9663" y="282.0483">&#171;strategy&#187;</text><text fill="#000000" font-family="sans-serif" font-size="17.5" lengthAdjust="spacing" textLength="179.5117" x="1668.75" y="301.8298">SqlExceptionMapper</text><line style="stroke:#181818;stroke-width:0.625;" x1="1633.75" x2="1850.7617" y1="312.207" y2="312.207"/><line style="stroke:#181818;stroke-width:0.625;" x1="1633.75" x2="1850.7617" y1="322.207" y2="322.207"/></g><!--class TimeoutRejectedExceptionMapper--><g class="entity" data-entity="TimeoutRejectedExceptionMapper" data-source-line="25" data-uid="ent0010" id="entity_TimeoutRejectedExceptionMapper"><rect fill="#F1F1F1" height="70.332" rx="3.125" ry="3.125" style="stroke:#181818;stroke-width:0.625;" width="341.3708" x="1896.875" y="261.875"/><ellipse cx="1915.625" cy="287.041" fill="#ADD1B2" rx="13.75" ry="13.75" style="stroke:#181818;stroke-width:1.25;"/><path d="M1919.3359,294.0918 Q1918.6133,294.4629 1917.8125,294.6387 Q1917.0117,294.834 1916.1328,294.834 Q1913.0078,294.834 1911.3477,292.7832 Q1909.707,290.7129 1909.707,286.8066 Q1909.707,282.9004 1911.3477,280.8301 Q1913.0078,278.7598 1916.1328,278.7598 Q1917.0117,278.7598 1917.8125,278.9551 Q1918.6328,279.1504 1919.3359,279.5215 L1919.3359,282.9199 Q1918.5547,282.1973 1917.8125,281.8652 Q1917.0703,281.5137 1916.2891,281.5137 Q1914.6094,281.5137 1913.75,282.8613 Q1912.8906,284.1895 1912.8906,286.8066 Q1912.8906,289.4238 1913.75,290.7715 Q1914.6094,292.0996 1916.2891,292.0996 Q1917.0703,292.0996 1917.8125,291.7676 Q1918.5547,291.416 1919.3359,290.6934 L1919.3359,294.0918 Z " fill="#000000"/><text fill="#000000" font-family="sans-serif" font-size="15" font-style="italic" lengthAdjust="spacing" textLength="81.0791" x="2043.2709" y="282.0483">&#171;strategy&#187;</text><text fill="#000000" font-family="sans-serif" font-size="17.5" lengthAdjust="spacing" textLength="301.3708" x="1933.125" y="301.8298">TimeoutRejectedExceptionMapper</text><line style="stroke:#181818;stroke-width:0.625;" x1="1898.125" x2="2236.9958" y1="312.207" y2="312.207"/><line style="stroke:#181818;stroke-width:0.625;" x1="1898.125" x2="2236.9958" y1="322.207" y2="322.207"/></g><!--class HttpRequestExceptionMapper--><g class="entity" data-entity="HttpRequestExceptionMapper" data-source-line="26" data-uid="ent0011" id="entity_HttpRequestExceptionMapper"><rect fill="#F1F1F1" height="70.332" rx="3.125" ry="3.125" style="stroke:#181818;stroke-width:0.625;" width="302.2949" x="2282.5" y="261.875"/><ellipse cx="2301.25" cy="287.041" fill="#ADD1B2" rx="13.75" ry="13.75" style="stroke:#181818;stroke-width:1.25;"/><path d="M2304.9609,294.0918 Q2304.2383,294.4629 2303.4375,294.6387 Q2302.6367,294.834 2301.7578,294.834 Q2298.6328,294.834 2296.9727,292.7832 Q2295.332,290.7129 2295.332,286.8066 Q2295.332,282.9004 2296.9727,280.8301 Q2298.6328,278.7598 2301.7578,278.7598 Q2302.6367,278.7598 2303.4375,278.9551 Q2304.2578,279.1504 2304.9609,279.5215 L2304.9609,282.9199 Q2304.1797,282.1973 2303.4375,281.8652 Q2302.6953,281.5137 2301.9141,281.5137 Q2300.2344,281.5137 2299.375,282.8613 Q2298.5156,284.1895 2298.5156,286.8066 Q2298.5156,289.4238 2299.375,290.7715 Q2300.2344,292.0996 2301.9141,292.0996 Q2302.6953,292.0996 2303.4375,291.7676 Q2304.1797,291.416 2304.9609,290.6934 L2304.9609,294.0918 Z " fill="#000000"/><text fill="#000000" font-family="sans-serif" font-size="15" font-style="italic" lengthAdjust="spacing" textLength="81.0791" x="2409.3579" y="282.0483">&#171;strategy&#187;</text><text fill="#000000" font-family="sans-serif" font-size="17.5" lengthAdjust="spacing" textLength="262.2949" x="2318.75" y="301.8298">HttpRequestExceptionMapper</text><line style="stroke:#181818;stroke-width:0.625;" x1="2283.75" x2="2583.5449" y1="312.207" y2="312.207"/><line style="stroke:#181818;stroke-width:0.625;" x1="2283.75" x2="2583.5449" y1="322.207" y2="322.207"/></g><!--class AppErrorFallbackMapper--><g class="entity" data-entity="AppErrorFallbackMapper" data-source-line="27" data-uid="ent0012" id="entity_AppErrorFallbackMapper"><rect fill="#F1F1F1" height="70.332" rx="3.125" ry="3.125" style="stroke:#181818;stroke-width:0.625;" width="255.6396" x="2629.375" y="261.875"/><ellipse cx="2648.125" cy="287.041" fill="#ADD1B2" rx="13.75" ry="13.75" style="stroke:#181818;stroke-width:1.25;"/><path d="M2651.8359,294.0918 Q2651.1133,294.4629 2650.3125,294.6387 Q2649.5117,294.834 2648.6328,294.834 Q2645.5078,294.834 2643.8477,292.7832 Q2642.207,290.7129 2642.207,286.8066 Q2642.207,282.9004 2643.8477,280.8301 Q2645.5078,278.7598 2648.6328,278.7598 Q2649.5117,278.7598 2650.3125,278.9551 Q2651.1328,279.1504 2651.8359,279.5215 L2651.8359,282.9199 Q2651.0547,282.1973 2650.3125,281.8652 Q2649.5703,281.5137 2648.7891,281.5137 Q2647.1094,281.5137 2646.25,282.8613 Q2645.3906,284.1895 2645.3906,286.8066 Q2645.3906,289.4238 2646.25,290.7715 Q2647.1094,292.0996 2648.7891,292.0996 Q2649.5703,292.0996 2650.3125,291.7676 Q2651.0547,291.416 2651.8359,290.6934 L2651.8359,294.0918 Z " fill="#000000"/><text fill="#000000" font-family="sans-serif" font-size="15" font-style="italic" lengthAdjust="spacing" textLength="81.0791" x="2732.9053" y="282.0483">&#171;strategy&#187;</text><text fill="#000000" font-family="sans-serif" font-size="17.5" lengthAdjust="spacing" textLength="215.6396" x="2665.625" y="301.8298">AppErrorFallbackMapper</text><line style="stroke:#181818;stroke-width:0.625;" x1="2630.625" x2="2883.7646" y1="312.207" y2="312.207"/><line style="stroke:#181818;stroke-width:0.625;" x1="2630.625" x2="2883.7646" y1="322.207" y2="322.207"/></g><!--class UnknownExceptionMapper--><g class="entity" data-entity="UnknownExceptionMapper" data-source-line="28" data-uid="ent0013" id="entity_UnknownExceptionMapper"><rect fill="#F1F1F1" height="70.332" rx="3.125" ry="3.125" style="stroke:#181818;stroke-width:0.625;" width="273.6694" x="2929.375" y="261.875"/><ellipse cx="2948.125" cy="287.041" fill="#ADD1B2" rx="13.75" ry="13.75" style="stroke:#181818;stroke-width:1.25;"/><path d="M2951.8359,294.0918 Q2951.1133,294.4629 2950.3125,294.6387 Q2949.5117,294.834 2948.6328,294.834 Q2945.5078,294.834 2943.8477,292.7832 Q2942.207,290.7129 2942.207,286.8066 Q2942.207,282.9004 2943.8477,280.8301 Q2945.5078,278.7598 2948.6328,278.7598 Q2949.5117,278.7598 2950.3125,278.9551 Q2951.1328,279.1504 2951.8359,279.5215 L2951.8359,282.9199 Q2951.0547,282.1973 2950.3125,281.8652 Q2949.5703,281.5137 2948.7891,281.5137 Q2947.1094,281.5137 2946.25,282.8613 Q2945.3906,284.1895 2945.3906,286.8066 Q2945.3906,289.4238 2946.25,290.7715 Q2947.1094,292.0996 2948.7891,292.0996 Q2949.5703,292.0996 2950.3125,291.7676 Q2951.0547,291.416 2951.8359,290.6934 L2951.8359,294.0918 Z " fill="#000000"/><text fill="#000000" font-family="sans-serif" font-size="15" font-style="italic" lengthAdjust="spacing" textLength="81.0791" x="3041.9202" y="282.0483">&#171;strategy&#187;</text><text fill="#000000" font-family="sans-serif" font-size="17.5" lengthAdjust="spacing" textLength="233.6694" x="2965.625" y="301.8298">UnknownExceptionMapper</text><line style="stroke:#181818;stroke-width:0.625;" x1="2930.625" x2="3201.7944" y1="312.207" y2="312.207"/><line style="stroke:#181818;stroke-width:0.625;" x1="2930.625" x2="3201.7944" y1="322.207" y2="322.207"/></g><!--class ExceptionMapperRegistry--><g class="entity" data-entity="ExceptionMapperRegistry" data-source-line="42" data-uid="ent0025" id="entity_ExceptionMapperRegistry"><rect fill="#F1F1F1" height="121.1133" rx="3.125" ry="3.125" style="stroke:#181818;stroke-width:0.625;" width="500.4456" x="2583.75" y="438.75"/><ellipse cx="2716.2305" cy="458.75" fill="#ADD1B2" rx="13.75" ry="13.75" style="stroke:#181818;stroke-width:1.25;"/><path d="M2719.9414,465.8008 Q2719.2188,466.1719 2718.418,466.3477 Q2717.6172,466.543 2716.7383,466.543 Q2713.6133,466.543 2711.9531,464.4922 Q2710.3125,462.4219 2710.3125,458.5156 Q2710.3125,454.6094 2711.9531,452.5391 Q2713.6133,450.4688 2716.7383,450.4688 Q2717.6172,450.4688 2718.418,450.6641 Q2719.2383,450.8594 2719.9414,451.2305 L2719.9414,454.6289 Q2719.1602,453.9063 2718.418,453.5742 Q2717.6758,453.2227 2716.8945,453.2227 Q2715.2148,453.2227 2714.3555,454.5703 Q2713.4961,455.8984 2713.4961,458.5156 Q2713.4961,461.1328 2714.3555,462.4805 Q2715.2148,463.8086 2716.8945,463.8086 Q2717.6758,463.8086 2718.418,463.4766 Q2719.1602,463.125 2719.9414,462.4023 L2719.9414,465.8008 Z " fill="#000000"/><text fill="#000000" font-family="sans-serif" font-size="17.5" lengthAdjust="spacing" textLength="224.8596" x="2741.8555" y="464.8083">ExceptionMapperRegistry</text><line style="stroke:#181818;stroke-width:0.625;" x1="2585" x2="3082.9456" y1="478.75" y2="478.75"/><text fill="#000000" font-family="sans-serif" font-size="17.5" lengthAdjust="spacing" textLength="411.3525" x="2591.25" y="499.9939">-IReadOnlyList&lt;MapperRegistration&gt; _primary</text><text fill="#000000" font-family="sans-serif" font-size="17.5" lengthAdjust="spacing" textLength="411.062" x="2591.25" y="520.365">-IReadOnlyList&lt;MapperRegistration&gt; _fallback</text><line style="stroke:#181818;stroke-width:0.625;" x1="2585" x2="3082.9456" y1="529.4922" y2="529.4922"/><text fill="#000000" font-family="sans-serif" font-size="17.5" lengthAdjust="spacing" textLength="485.4456" x="2591.25" y="550.7361">+Resolve(Exception): IExceptionProblemDetailsMapper</text></g><!--class ExceptionMapperResolver--><g class="entity" data-entity="ExceptionMapperResolver" data-source-line="48" data-uid="ent0026" id="entity_ExceptionMapperResolver"><rect fill="#F1F1F1" height="100.7422" rx="3.125" ry="3.125" style="stroke:#181818;stroke-width:0.625;" width="624.1675" x="3246.875" y="246.25"/><ellipse cx="3439.4647" cy="266.25" fill="#ADD1B2" rx="13.75" ry="13.75" style="stroke:#181818;stroke-width:1.25;"/><path d="M3443.1757,273.3008 Q3442.453,273.6719 3441.6522,273.8477 Q3440.8514,274.043 3439.9725,274.043 Q3436.8475,274.043 3435.1874,271.9922 Q3433.5468,269.9219 3433.5468,266.0156 Q3433.5468,262.1094 3435.1874,260.0391 Q3436.8475,257.9688 3439.9725,257.9688 Q3440.8514,257.9688 3441.6522,258.1641 Q3442.4725,258.3594 3443.1757,258.7305 L3443.1757,262.1289 Q3442.3944,261.4063 3441.6522,261.0742 Q3440.91,260.7227 3440.1288,260.7227 Q3438.4491,260.7227 3437.5897,262.0703 Q3436.7303,263.3984 3436.7303,266.0156 Q3436.7303,268.6328 3437.5897,269.9805 Q3438.4491,271.3086 3440.1288,271.3086 Q3440.91,271.3086 3441.6522,270.9766 Q3442.3944,270.625 3443.1757,269.9023 L3443.1757,273.3008 Z " fill="#000000"/><text fill="#000000" font-family="sans-serif" font-size="17.5" lengthAdjust="spacing" textLength="228.363" x="3465.0897" y="272.3083">ExceptionMapperResolver</text><line style="stroke:#181818;stroke-width:0.625;" x1="3248.125" x2="3869.7925" y1="286.25" y2="286.25"/><text fill="#000000" font-family="sans-serif" font-size="17.5" lengthAdjust="spacing" textLength="309.3604" x="3254.375" y="307.4939">-IExceptionMapperRegistry registry</text><line style="stroke:#181818;stroke-width:0.625;" x1="3248.125" x2="3869.7925" y1="316.6211" y2="316.6211"/><text fill="#000000" font-family="sans-serif" font-size="17.5" lengthAdjust="spacing" textLength="609.1675" x="3254.375" y="337.865">+Resolve(HttpContext, Exception): (HttpStatusCode, ProblemDetails)</text></g><!--class ExceptionMapperAttribute--><g class="entity" data-entity="ExceptionMapperAttribute" data-source-line="53" data-uid="ent0027" id="entity_ExceptionMapperAttribute"><rect fill="#F1F1F1" height="100.7422" rx="3.125" ry="3.125" style="stroke:#181818;stroke-width:0.625;" width="270.0122" x="2698.75" y="676.25"/><ellipse cx="2717.5" cy="696.25" fill="#ADD1B2" rx="13.75" ry="13.75" style="stroke:#181818;stroke-width:1.25;"/><path d="M2721.2109,703.3008 Q2720.4883,703.6719 2719.6875,703.8477 Q2718.8867,704.043 2718.0078,704.043 Q2714.8828,704.043 2713.2227,701.9922 Q2711.582,699.9219 2711.582,696.0156 Q2711.582,692.1094 2713.2227,690.0391 Q2714.8828,687.9688 2718.0078,687.9688 Q2718.8867,687.9688 2719.6875,688.1641 Q2720.5078,688.3594 2721.2109,688.7305 L2721.2109,692.1289 Q2720.4297,691.4063 2719.6875,691.0742 Q2718.9453,690.7227 2718.1641,690.7227 Q2716.4844,690.7227 2715.625,692.0703 Q2714.7656,693.3984 2714.7656,696.0156 Q2714.7656,698.6328 2715.625,699.9805 Q2716.4844,701.3086 2718.1641,701.3086 Q2718.9453,701.3086 2719.6875,700.9766 Q2720.4297,700.625 2721.2109,699.9023 L2721.2109,703.3008 Z " fill="#000000"/><text fill="#000000" font-family="sans-serif" font-size="17.5" lengthAdjust="spacing" textLength="230.0122" x="2735" y="702.3083">ExceptionMapperAttribute</text><line style="stroke:#181818;stroke-width:0.625;" x1="2700" x2="2967.5122" y1="716.25" y2="716.25"/><text fill="#000000" font-family="sans-serif" font-size="17.5" lengthAdjust="spacing" textLength="105.6323" x="2706.25" y="737.4939">+int Priority</text><text fill="#000000" font-family="sans-serif" font-size="17.5" lengthAdjust="spacing" textLength="143.9905" x="2706.25" y="757.865">+bool IsFallback</text><line style="stroke:#181818;stroke-width:0.625;" x1="2700" x2="2967.5122" y1="766.9922" y2="766.9922"/></g><!--class GlobalExceptionHandler--><g class="entity" data-entity="GlobalExceptionHandler" data-source-line="58" data-uid="ent0028" id="entity_GlobalExceptionHandler"><rect fill="#F1F1F1" height="161.8555" rx="3.125" ry="3.125" style="stroke:#181818;stroke-width:0.625;" width="730.9961" x="3810.625" y="8.75"/><ellipse cx="4065.2295" cy="28.75" fill="#ADD1B2" rx="13.75" ry="13.75" style="stroke:#181818;stroke-width:1.25;"/><path d="M4068.9404,35.8008 Q4068.2178,36.1719 4067.417,36.3477 Q4066.6162,36.543 4065.7373,36.543 Q4062.6123,36.543 4060.9521,34.4922 Q4059.3115,32.4219 4059.3115,28.5156 Q4059.3115,24.6094 4060.9521,22.5391 Q4062.6123,20.4688 4065.7373,20.4688 Q4066.6162,20.4688 4067.417,20.6641 Q4068.2373,20.8594 4068.9404,21.2305 L4068.9404,24.6289 Q4068.1592,23.9063 4067.417,23.5742 Q4066.6748,23.2227 4065.8936,23.2227 Q4064.2139,23.2227 4063.3545,24.5703 Q4062.4951,25.8984 4062.4951,28.5156 Q4062.4951,31.1328 4063.3545,32.4805 Q4064.2139,33.8086 4065.8936,33.8086 Q4066.6748,33.8086 4067.417,33.4766 Q4068.1592,33.125 4068.9404,32.4023 L4068.9404,35.8008 Z " fill="#000000"/><text fill="#000000" font-family="sans-serif" font-size="17.5" lengthAdjust="spacing" textLength="211.1621" x="4090.8545" y="34.8083">GlobalExceptionHandler</text><line style="stroke:#181818;stroke-width:0.625;" x1="3811.875" x2="4540.3711" y1="48.75" y2="48.75"/><text fill="#000000" font-family="sans-serif" font-size="17.5" lengthAdjust="spacing" textLength="389.281" x="3818.125" y="69.9939">-IExceptionMapperResolver mapperResolver</text><text fill="#000000" font-family="sans-serif" font-size="17.5" lengthAdjust="spacing" textLength="248.8708" x="3818.125" y="90.365">-ISpanEnricher spanEnricher</text><text fill="#000000" font-family="sans-serif" font-size="17.5" lengthAdjust="spacing" textLength="320.8875" x="3818.125" y="110.7361">-IProblemDetailsFormatter formatter</text><text fill="#000000" font-family="sans-serif" font-size="17.5" lengthAdjust="spacing" textLength="133.4204" x="3818.125" y="131.1072">-ILogger logger</text><line style="stroke:#181818;stroke-width:0.625;" x1="3811.875" x2="4540.3711" y1="140.2344" y2="140.2344"/><text fill="#000000" font-family="sans-serif" font-size="17.5" lengthAdjust="spacing" textLength="715.9961" x="3818.125" y="161.4783">+TryHandleAsync(HttpContext, Exception, CancellationToken): ValueTask&lt;bool&gt;</text></g><!--class IProblemDetailsFormatter--><g class="entity" data-entity="IProblemDetailsFormatter" data-source-line="70" data-uid="ent0033" id="entity_IProblemDetailsFormatter"><rect fill="#F1F1F1" height="60" rx="3.125" ry="3.125" style="stroke:#181818;stroke-width:0.625;" width="265.4919" x="3915" y="266.875"/><ellipse cx="3933.75" cy="286.875" fill="#ADD1B2" rx="13.75" ry="13.75" style="stroke:#181818;stroke-width:1.25;"/><path d="M3937.4609,293.9258 Q3936.7383,294.2969 3935.9375,294.4727 Q3935.1367,294.668 3934.2578,294.668 Q3931.1328,294.668 3929.4727,292.6172 Q3927.832,290.5469 3927.832,286.6406 Q3927.832,282.7344 3929.4727,280.6641 Q3931.1328,278.5938 3934.2578,278.5938 Q3935.1367,278.5938 3935.9375,278.7891 Q3936.7578,278.9844 3937.4609,279.3555 L3937.4609,282.7539 Q3936.6797,282.0313 3935.9375,281.6992 Q3935.1953,281.3477 3934.4141,281.3477 Q3932.7344,281.3477 3931.875,282.6953 Q3931.0156,284.0234 3931.0156,286.6406 Q3931.0156,289.2578 3931.875,290.6055 Q3932.7344,291.9336 3934.4141,291.9336 Q3935.1953,291.9336 3935.9375,291.6016 Q3936.6797,291.25 3937.4609,290.5273 L3937.4609,293.9258 Z " fill="#000000"/><text fill="#000000" font-family="sans-serif" font-size="17.5" lengthAdjust="spacing" textLength="225.4919" x="3951.25" y="292.9333">IProblemDetailsFormatter</text><line style="stroke:#181818;stroke-width:0.625;" x1="3916.25" x2="4179.2419" y1="306.875" y2="306.875"/><line style="stroke:#181818;stroke-width:0.625;" x1="3916.25" x2="4179.2419" y1="316.875" y2="316.875"/></g><!--class ISpanEnricher--><g class="entity" data-entity="ISpanEnricher" data-source-line="71" data-uid="ent0035" id="entity_ISpanEnricher"><rect fill="#F1F1F1" height="60" rx="3.125" ry="3.125" style="stroke:#181818;stroke-width:0.625;" width="162.0728" x="4223.75" y="266.875"/><ellipse cx="4242.5" cy="286.875" fill="#ADD1B2" rx="13.75" ry="13.75" style="stroke:#181818;stroke-width:1.25;"/><path d="M4246.2109,293.9258 Q4245.4883,294.2969 4244.6875,294.4727 Q4243.8867,294.668 4243.0078,294.668 Q4239.8828,294.668 4238.2227,292.6172 Q4236.582,290.5469 4236.582,286.6406 Q4236.582,282.7344 4238.2227,280.6641 Q4239.8828,278.5938 4243.0078,278.5938 Q4243.8867,278.5938 4244.6875,278.7891 Q4245.5078,278.9844 4246.2109,279.3555 L4246.2109,282.7539 Q4245.4297,282.0313 4244.6875,281.6992 Q4243.9453,281.3477 4243.1641,281.3477 Q4241.4844,281.3477 4240.625,282.6953 Q4239.7656,284.0234 4239.7656,286.6406 Q4239.7656,289.2578 4240.625,290.6055 Q4241.4844,291.9336 4243.1641,291.9336 Q4243.9453,291.9336 4244.6875,291.6016 Q4245.4297,291.25 4246.2109,290.5273 L4246.2109,293.9258 Z " fill="#000000"/><text fill="#000000" font-family="sans-serif" font-size="17.5" lengthAdjust="spacing" textLength="122.0728" x="4260" y="292.9333">ISpanEnricher</text><line style="stroke:#181818;stroke-width:0.625;" x1="4225" x2="4384.5728" y1="306.875" y2="306.875"/><line style="stroke:#181818;stroke-width:0.625;" x1="4225" x2="4384.5728" y1="316.875" y2="316.875"/></g><!--class ILogger--><g class="entity" data-entity="ILogger" data-source-line="72" data-uid="ent0037" id="entity_ILogger"><rect fill="#F1F1F1" height="60" rx="3.125" ry="3.125" style="stroke:#181818;stroke-width:0.625;" width="105.7959" x="4430.625" y="266.875"/><ellipse cx="4449.375" cy="286.875" fill="#ADD1B2" rx="13.75" ry="13.75" style="stroke:#181818;stroke-width:1.25;"/><path d="M4453.0859,293.9258 Q4452.3633,294.2969 4451.5625,294.4727 Q4450.7617,294.668 4449.8828,294.668 Q4446.7578,294.668 4445.0977,292.6172 Q4443.457,290.5469 4443.457,286.6406 Q4443.457,282.7344 4445.0977,280.6641 Q4446.7578,278.5938 4449.8828,278.5938 Q4450.7617,278.5938 4451.5625,278.7891 Q4452.3828,278.9844 4453.0859,279.3555 L4453.0859,282.7539 Q4452.3047,282.0313 4451.5625,281.6992 Q4450.8203,281.3477 4450.0391,281.3477 Q4448.3594,281.3477 4447.5,282.6953 Q4446.6406,284.0234 4446.6406,286.6406 Q4446.6406,289.2578 4447.5,290.6055 Q4448.3594,291.9336 4450.0391,291.9336 Q4450.8203,291.9336 4451.5625,291.6016 Q4452.3047,291.25 4453.0859,290.5273 L4453.0859,293.9258 Z " fill="#000000"/><text fill="#000000" font-family="sans-serif" font-size="17.5" lengthAdjust="spacing" textLength="65.7959" x="4466.875" y="292.9333">ILogger</text><line style="stroke:#181818;stroke-width:0.625;" x1="4431.875" x2="4535.1709" y1="306.875" y2="306.875"/><line style="stroke:#181818;stroke-width:0.625;" x1="4431.875" x2="4535.1709" y1="316.875" y2="316.875"/></g><g class="entity" data-entity="NPattern" data-source-line="75" data-uid="ent0039" id="entity_NPattern"><path d="M4586.25,73.75 L4586.25,105.166 L5366.4667,105.166 L5366.4667,86.25 L5353.9667,73.75 L4586.25,73.75" fill="#FEFFDD" style="stroke:#181818;stroke-width:0.625;"/><path d="M5353.9667,73.75 L5353.9667,86.25 L5366.4667,86.25 L5353.9667,73.75" fill="#FEFFDD" style="stroke:#181818;stroke-width:1.25;"/><text fill="#000000" font-family="sans-serif" font-size="16.25" lengthAdjust="spacing" textLength="753.9667" x="4593.75" y="95.0836">Strategy hierarchy relies on a Template Method (`MapTyped`) inside the generic base class.</text></g><!--link ExceptionProblemDetailsMapper<TException> to IExceptionProblemDetailsMapper--><g class="link" data-entity-1="ExceptionProblemDetailsMapper.TException." data-entity-2="IExceptionProblemDetailsMapper" data-source-line="30" data-uid="lnk14" id="link_ExceptionProblemDetailsMapper.TException._IExceptionProblemDetailsMapper"><path codeLine="30" d="M1854.825,575.2375 C1902.0125,606.575 1937.1439,629.9154 1980.4939,658.7029" fill="none" id="ExceptionProblemDetailsMapper&lt;TException&gt;-to-IExceptionProblemDetailsMapper" style="stroke:#181818;stroke-width:1.25;stroke-dasharray:8.75,8.75;"/><polygon fill="none" points="1999.2375,671.15,1984.643,652.4551,1976.3449,664.9508,1999.2375,671.15" style="stroke:#181818;stroke-width:1.25;"/></g><!--link ValidationExceptionMapper to ExceptionProblemDetailsMapper<TException>--><g class="link" data-entity-1="ValidationExceptionMapper" data-entity-2="ExceptionProblemDetailsMapper.TException." data-source-line="31" data-uid="lnk15" id="link_ValidationExceptionMapper_ExceptionProblemDetailsMapper.TException."><path codeLine="31" d="M248.625,331.9625 C268.7625,337.8625 289.9125,343.4125 310,347.5 C699.6125,426.8625 1135.3932,464.3567 1426.7182,482.4317" fill="none" id="ValidationExceptionMapper-to-ExceptionProblemDetailsMapper&lt;TException&gt;" style="stroke:#181818;stroke-width:1.25;"/><polygon fill="none" points="1449.175,483.825,1427.1826,474.9461,1426.2537,489.9173,1449.175,483.825" style="stroke:#181818;stroke-width:1.25;"/></g><!--link DomainExceptionMapper to ExceptionProblemDetailsMapper<TException>--><g class="link" data-entity-1="DomainExceptionMapper" data-entity-2="ExceptionProblemDetailsMapper.TException." data-source-line="32" data-uid="lnk16" id="link_DomainExceptionMapper_ExceptionProblemDetailsMapper.TException."><path codeLine="32" d="M556.9625,331.8875 C575.6125,337.725 595.1625,343.2625 613.75,347.5 C893.975,411.375 1197.5331,449.0725 1426.9206,471.635" fill="none" id="DomainExceptionMapper-to-ExceptionProblemDetailsMapper&lt;TException&gt;" style="stroke:#181818;stroke-width:1.25;"/><polygon fill="none" points="1449.3125,473.8375,1427.6547,464.1711,1426.1864,479.099,1449.3125,473.8375" style="stroke:#181818;stroke-width:1.25;"/></g><!--link AuthorizationExceptionMapper to ExceptionProblemDetailsMapper<TException>--><g class="link" data-entity-1="AuthorizationExceptionMapper" data-entity-2="ExceptionProblemDetailsMapper.TException." data-source-line="33" data-uid="lnk17" id="link_AuthorizationExceptionMapper_ExceptionProblemDetailsMapper.TException."><path codeLine="33" d="M907.875,331.975 C928.1,337.45 948.9875,342.8375 968.75,347.5 C1126.5875,384.75 1281.9642,415.6875 1427.1142,442.5875" fill="none" id="AuthorizationExceptionMapper-to-ExceptionProblemDetailsMapper&lt;TException&gt;" style="stroke:#181818;stroke-width:1.25;"/><polygon fill="none" points="1449.2375,446.6875,1428.4809,435.2131,1425.7475,449.9619,1449.2375,446.6875" style="stroke:#181818;stroke-width:1.25;"/></g><!--link RateLimitExceptionMapper to ExceptionProblemDetailsMapper<TException>--><g class="link" data-entity-1="RateLimitExceptionMapper" data-entity-2="ExceptionProblemDetailsMapper.TException." data-source-line="34" data-uid="lnk18" id="link_RateLimitExceptionMapper_ExceptionProblemDetailsMapper.TException."><path codeLine="34" d="M1232.5125,331.9375 C1309.5125,357.025 1396.069,385.2434 1492.844,416.7684" fill="none" id="RateLimitExceptionMapper-to-ExceptionProblemDetailsMapper&lt;TException&gt;" style="stroke:#181818;stroke-width:1.25;"/><polygon fill="none" points="1514.2375,423.7375,1495.167,409.6373,1490.521,423.8996,1514.2375,423.7375" style="stroke:#181818;stroke-width:1.25;"/></g><!--link NotFoundExceptionMapper to ExceptionProblemDetailsMapper<TException>--><g class="link" data-entity-1="NotFoundExceptionMapper" data-entity-2="ExceptionProblemDetailsMapper.TException." data-source-line="35" data-uid="lnk19" id="link_NotFoundExceptionMapper_ExceptionProblemDetailsMapper.TException."><path codeLine="35" d="M1499.6125,332.05 C1536.2875,357.125 1569.0635,379.5388 1615.101,411.0138" fill="none" id="NotFoundExceptionMapper-to-ExceptionProblemDetailsMapper&lt;TException&gt;" style="stroke:#181818;stroke-width:1.25;"/><polygon fill="none" points="1633.675,423.7125,1619.3339,404.8225,1610.8681,417.2051,1633.675,423.7125" style="stroke:#181818;stroke-width:1.25;"/></g><!--link SqlExceptionMapper to ExceptionProblemDetailsMapper<TException>--><g class="link" data-entity-1="SqlExceptionMapper" data-entity-2="ExceptionProblemDetailsMapper.TException." data-source-line="36" data-uid="lnk20" id="link_SqlExceptionMapper_ExceptionProblemDetailsMapper.TException."><path codeLine="36" d="M1742.5,332.05 C1742.5,357.125 1742.5,369.7375 1742.5,401.2125" fill="none" id="SqlExceptionMapper-to-ExceptionProblemDetailsMapper&lt;TException&gt;" style="stroke:#181818;stroke-width:1.25;"/><polygon fill="none" points="1742.5,423.7125,1750,401.2125,1735,401.2125,1742.5,423.7125" style="stroke:#181818;stroke-width:1.25;"/></g><!--link TimeoutRejectedExceptionMapper to ExceptionProblemDetailsMapper<TException>--><g class="link" data-entity-1="TimeoutRejectedExceptionMapper" data-entity-2="ExceptionProblemDetailsMapper.TException." data-source-line="37" data-uid="lnk21" id="link_TimeoutRejectedExceptionMapper_ExceptionProblemDetailsMapper.TException."><path codeLine="37" d="M2012.3625,332.05 C1971.625,357.125 1933.7389,380.4479 1882.5764,411.9229" fill="none" id="TimeoutRejectedExceptionMapper-to-ExceptionProblemDetailsMapper&lt;TException&gt;" style="stroke:#181818;stroke-width:1.25;"/><polygon fill="none" points="1863.4125,423.7125,1886.5063,418.3109,1878.6466,405.5349,1863.4125,423.7125" style="stroke:#181818;stroke-width:1.25;"/></g><!--link HttpRequestExceptionMapper to ExceptionProblemDetailsMapper<TException>--><g class="link" data-entity-1="HttpRequestExceptionMapper" data-entity-2="ExceptionProblemDetailsMapper.TException." data-source-line="38" data-uid="lnk22" id="link_HttpRequestExceptionMapper_ExceptionProblemDetailsMapper.TException."><path codeLine="38" d="M2316.875,331.9375 C2230.1625,357.025 2130.189,385.9606 2021.2015,417.4856" fill="none" id="HttpRequestExceptionMapper-to-ExceptionProblemDetailsMapper&lt;TException&gt;" style="stroke:#181818;stroke-width:1.25;"/><polygon fill="none" points="1999.5875,423.7375,2023.2854,424.6902,2019.1175,410.2809,1999.5875,423.7375" style="stroke:#181818;stroke-width:1.25;"/></g><!--link AppErrorFallbackMapper to ExceptionProblemDetailsMapper<TException>--><g class="link" data-entity-1="AppErrorFallbackMapper" data-entity-2="ExceptionProblemDetailsMapper.TException." data-source-line="39" data-uid="lnk23" id="link_AppErrorFallbackMapper_ExceptionProblemDetailsMapper.TException."><path codeLine="39" d="M2660.8625,331.9375 C2642.85,337.6 2624.075,343.0625 2606.25,347.5 C2418.475,394.2625 2226.4383,428.3032 2058.2758,454.1782" fill="none" id="AppErrorFallbackMapper-to-ExceptionProblemDetailsMapper&lt;TException&gt;" style="stroke:#181818;stroke-width:1.25;"/><polygon fill="none" points="2036.0375,457.6,2059.4164,461.591,2057.1352,446.7655,2036.0375,457.6" style="stroke:#181818;stroke-width:1.25;"/></g><!--link UnknownExceptionMapper to ExceptionProblemDetailsMapper<TException>--><g class="link" data-entity-1="UnknownExceptionMapper" data-entity-2="ExceptionProblemDetailsMapper.TException." data-source-line="40" data-uid="lnk24" id="link_UnknownExceptionMapper_ExceptionProblemDetailsMapper.TException."><path codeLine="40" d="M2966.6,332 C2947.1625,337.7875 2926.8125,343.275 2907.5,347.5 C2614.1125,411.5875 2295.1987,449.6544 2058.1487,472.2294" fill="none" id="UnknownExceptionMapper-to-ExceptionProblemDetailsMapper&lt;TException&gt;" style="stroke:#181818;stroke-width:1.25;"/><polygon fill="none" points="2035.75,474.3625,2058.8597,479.6956,2057.4376,464.7632,2035.75,474.3625" style="stroke:#181818;stroke-width:1.25;"/></g><!--link ExceptionMapperRegistry to IExceptionProblemDetailsMapper--><g class="link" data-entity-1="ExceptionMapperRegistry" data-entity-2="IExceptionProblemDetailsMapper" data-source-line="66" data-uid="lnk29" id="link_ExceptionMapperRegistry_IExceptionProblemDetailsMapper"><path codeLine="66" d="M2635.05,560.0375 C2519.775,594.5 2382.8231,635.4513 2270.4981,669.0388" fill="none" id="ExceptionMapperRegistry-to-IExceptionProblemDetailsMapper" style="stroke:#181818;stroke-width:1.25;"/><polygon fill="#181818" points="2263.3125,671.1875,2275.5234,672.7549,2269.3005,669.397,2272.6585,663.1741,2263.3125,671.1875" style="stroke:#181818;stroke-width:1.25;"/><text fill="#000000" font-family="sans-serif" font-size="16.25" lengthAdjust="spacing" textLength="136.2286" x="2458.75" y="628.8336">stores strategies</text></g><!--link ExceptionMapperRegistry to ExceptionMapperAttribute--><g class="link" data-entity-1="ExceptionMapperRegistry" data-entity-2="ExceptionMapperAttribute" data-source-line="67" data-uid="lnk30" id="link_ExceptionMapperRegistry_ExceptionMapperAttribute"><path codeLine="67" d="M2833.75,560.325 C2833.75,596.3875 2833.75,634.3125 2833.75,668.4125" fill="none" id="ExceptionMapperRegistry-to-ExceptionMapperAttribute" style="stroke:#181818;stroke-width:1.25;"/><polygon fill="#181818" points="2833.75,675.9125,2838.75,664.6625,2833.75,669.6625,2828.75,664.6625,2833.75,675.9125" style="stroke:#181818;stroke-width:1.25;"/><text fill="#000000" font-family="sans-serif" font-size="16.25" lengthAdjust="spacing" textLength="109.2194" x="2835" y="628.8336">reads priority</text></g><!--link ExceptionMapperResolver to ExceptionMapperRegistry--><g class="link" data-entity-1="ExceptionMapperResolver" data-entity-2="ExceptionMapperRegistry" data-source-line="68" data-uid="lnk31" id="link_ExceptionMapperResolver_ExceptionMapperRegistry"><path codeLine="68" d="M3379.5375,347.5625 C3279.6375,375.125 3161.755,407.6432 3056.53,436.6682" fill="none" id="ExceptionMapperResolver-to-ExceptionMapperRegistry" style="stroke:#181818;stroke-width:1.25;"/><polygon fill="#181818" points="3049.3,438.6625,3061.4745,440.491,3055.325,437.0006,3058.8155,430.8511,3049.3,438.6625" style="stroke:#181818;stroke-width:1.25;"/></g><!--link GlobalExceptionHandler to ExceptionMapperResolver--><g class="link" data-entity-1="GlobalExceptionHandler" data-entity-2="ExceptionMapperResolver" data-source-line="69" data-uid="lnk32" id="link_GlobalExceptionHandler_ExceptionMapperResolver"><path codeLine="69" d="M3937.0625,170.025 C3859.9,195.65 3783.7306,220.9372 3715.0056,243.7497" fill="none" id="GlobalExceptionHandler-to-ExceptionMapperResolver" style="stroke:#181818;stroke-width:1.25;"/><polygon fill="#181818" points="3707.8875,246.1125,3720.1398,247.3137,3713.8192,244.1435,3716.9895,237.8229,3707.8875,246.1125" style="stroke:#181818;stroke-width:1.25;"/></g><!--link GlobalExceptionHandler to IProblemDetailsFormatter--><g class="link" data-entity-1="GlobalExceptionHandler" data-entity-2="IProblemDetailsFormatter" data-source-line="70" data-uid="lnk34" id="link_GlobalExceptionHandler_IProblemDetailsFormatter"><path codeLine="70" d="M4126.1,170.475 C4104.775,204.425 4085.2512,235.5111 4069.5512,260.5111" fill="none" id="GlobalExceptionHandler-to-IProblemDetailsFormatter" style="stroke:#181818;stroke-width:1.25;"/><polygon fill="#181818" points="4065.5625,266.8625,4075.7798,259.9945,4068.8864,261.5697,4067.3113,254.6763,4065.5625,266.8625" style="stroke:#181818;stroke-width:1.25;"/></g><!--link GlobalExceptionHandler to ISpanEnricher--><g class="link" data-entity-1="GlobalExceptionHandler" data-entity-2="ISpanEnricher" data-source-line="71" data-uid="lnk36" id="link_GlobalExceptionHandler_ISpanEnricher"><path codeLine="71" d="M4226.4,170.475 C4247.725,204.425 4267.2488,235.5111 4282.9488,260.5111" fill="none" id="GlobalExceptionHandler-to-ISpanEnricher" style="stroke:#181818;stroke-width:1.25;"/><polygon fill="#181818" points="4286.9375,266.8625,4285.1887,254.6763,4283.6136,261.5697,4276.7202,259.9945,4286.9375,266.8625" style="stroke:#181818;stroke-width:1.25;"/></g><!--link GlobalExceptionHandler to ILogger--><g class="link" data-entity-1="GlobalExceptionHandler" data-entity-2="ILogger" data-source-line="72" data-uid="lnk38" id="link_GlobalExceptionHandler_ILogger"><path codeLine="72" d="M4295.575,170.175 C4346.5625,204.1625 4396.6221,237.5397 4434.2346,262.6147" fill="none" id="GlobalExceptionHandler-to-ILogger" style="stroke:#181818;stroke-width:1.25;"/><polygon fill="#181818" points="4440.475,266.775,4433.8879,256.3744,4435.2747,263.3081,4428.3409,264.6949,4440.475,266.775" style="stroke:#181818;stroke-width:1.25;"/></g><!--SRC=[jLPBSzem4BxxL-maXoJJmAGzCWmp34cQpEGruFPQXBs0YYmvacZZfFdlNVa5fDZOXvviovy-xRSFxPx0I31Z8EHieLa4SwNXIckbJNTeuWUq8wKH8XR7gC5OpImk4bXor4m7owJhdS33et_LWwb_zH9WRBcIK-0662nGekO1s2H6Y1cneoKIBc5q34o6e35YN19qveW32qlKI8oMMu5xhEZajbvcjdfcnMNA2u5R7rgh-MnjyJPGSi9V4Iws867CuVEN2y_ZagoOim3XjhJuIQkPmEWIBUF2t6Tg-_r2xs00Rnx0fvbI0aPCtf3r0a_BxMVkv-cDjV74Chis8nNYEUoIdW7HffYH8WjUx3bixN_tlD8BgHWugZMkl_7su8WijHZ5WcpDBUrif4sOv9QSeQ5y-xzI08xV2Ytl3kbJ_CDTkByhFLFydGaUChTO_jqJYHnygLpkD00ErtQfD7zjIZocppiUSTi0-w3ijLhBi05qyYmQe7mUeLhRCVx4m68JNkVMCJwlqJGnU1Z7QLbTCo5cB5XL8x_9bLI_wntcjSdHRlVFu435UTKPqEdGxXR7UVlpepLDRVQqPglChTPCLPdNccXFNhRcE92rhVbgShfz0FTdV6kUYdfepPENrmUUCIuu5LQINzvZPE6Z5CaTBVPt46aU3k17h7d4TD8GFS_5kxjzZ4Q9NzitVkzGMRvNMfrIwOyjvuCcdRzidrxHF7fmgFLK6bDs_wnLKvUdhPngroPblxirHHfiQBuADMER6iZwOQMaN72qyvb29p6JLvBcdQKRbBO-qh-xAgwLZfXrmz2yU4jHTsgne4MHFfpLlauoWuOcaK65ryvT7mzGY3JSlbgXSoJTfMlqcLdrdVI14rmLe4xdqCqCFPhzQ0GpnGZ8qTJILGQdH-d0GWDn4Pig5-zXAKxmAcAsTqiUefejLS6ftRCTxbfW5bFFauhKCvePdb9oIU6T_3DEatC4kHQKfFdPpsSwk4TgGY6SJejXQdf6KxJX8O9TOZbdpvZ1R7ZiUaZZjJlnBm00]--></g></svg>