<svg xmlns="http://www.w3.org/2000/svg" xmlns:xlink="http://www.w3.org/1999/xlink" contentStyleType="text/css" data-diagram-type="DESCRIPTION" height="768.75px" preserveAspectRatio="none" style="width:3115px;height:768px;background:#FFFFFF;" version="1.1" viewBox="0 0 3115 768" width="3115px" zoomAndPan="magnify"><defs/><g><!--cluster Demo--><g class="cluster" data-entity="Demo" data-source-line="7" data-uid="ent0002" id="cluster_Demo"><rect fill="none" height="168.75" rx="3.125" ry="3.125" style="stroke:#181818;stroke-width:1.25;" width="246.25" x="1549.375" y="8.75"/><text fill="#000000" font-family="sans-serif" font-size="17.5" font-weight="bold" lengthAdjust="spacing" textLength="95.3699" x="1624.8151" y="27.4939">Demo.Api</text><text fill="#000000" font-family="sans-serif" font-size="17.5" font-weight="bold" lengthAdjust="spacing" textLength="207.3596" x="1568.8202" y="47.865">&#8226; Hosts minimal APIs</text><text fill="#000000" font-family="sans-serif" font-size="17.5" font-weight="bold" lengthAdjust="spacing" textLength="225.885" x="1559.5575" y="68.2361">&#8226; Registers infra via DI</text></g><!--entity Endpoints--><g class="entity" data-entity="Endpoints" data-source-line="8" data-uid="ent0003" id="entity_Endpoints"><rect fill="#F1F1F1" height="45.3711" rx="3.125" ry="3.125" style="stroke:#181818;stroke-width:0.625;" width="162.6587" x="1603.125" y="102.5"/><text fill="#000000" font-family="sans-serif" font-size="17.5" lengthAdjust="spacing" textLength="137.6587" x="1615.625" y="131.2439">HTTP Endpoints</text></g><!--entity ErrorsAsp--><g class="entity" data-entity="ErrorsAsp" data-source-line="11" data-uid="ent0004" id="entity_ErrorsAsp"><rect fill="#F1F1F1" height="86.1133" rx="3.125" ry="3.125" style="stroke:#181818;stroke-width:0.625;" width="289.4824" x="1414.375" y="286.25"/><text fill="#000000" font-family="sans-serif" font-size="17.5" lengthAdjust="spacing" textLength="161.8323" x="1426.875" y="314.9939">Errors.AspNetCore</text><text fill="#000000" font-family="sans-serif" font-size="17.5" lengthAdjust="spacing" textLength="227.0471" x="1426.875" y="335.365">&#8226; GlobalExceptionHandler</text><text fill="#000000" font-family="sans-serif" font-size="17.5" lengthAdjust="spacing" textLength="264.4824" x="1426.875" y="355.7361">&#8226; Mapper registry + sanitizers</text></g><!--entity ErrorsAbs--><g class="entity" data-entity="ErrorsAbs" data-source-line="12" data-uid="ent0005" id="entity_ErrorsAbs"><rect fill="#F1F1F1" height="86.1133" rx="3.125" ry="3.125" style="stroke:#181818;stroke-width:0.625;" width="282.0483" x="1520.625" y="488.75"/><text fill="#000000" font-family="sans-serif" font-size="17.5" lengthAdjust="spacing" textLength="167.2668" x="1533.125" y="517.4939">Errors.Abstractions</text><text fill="#000000" font-family="sans-serif" font-size="17.5" lengthAdjust="spacing" textLength="223.6804" x="1533.125" y="537.865">&#8226; ErrorCode &amp; Result&lt;T&gt;</text><text fill="#000000" font-family="sans-serif" font-size="17.5" lengthAdjust="spacing" textLength="257.0483" x="1533.125" y="558.2361">&#8226; Domain-specific exceptions</text></g><!--entity LoggingCore--><g class="entity" data-entity="LoggingCore" data-source-line="13" data-uid="ent0006" id="entity_LoggingCore"><rect fill="#F1F1F1" height="86.1133" rx="3.125" ry="3.125" style="stroke:#181818;stroke-width:0.625;" width="284.3469" x="8.75" y="488.75"/><text fill="#000000" font-family="sans-serif" font-size="17.5" lengthAdjust="spacing" textLength="116.1853" x="21.25" y="517.4939">Logging.Core</text><text fill="#000000" font-family="sans-serif" font-size="17.5" lengthAdjust="spacing" textLength="259.3469" x="21.25" y="537.865">&#8226; LoggingBuilder conventions</text><text fill="#000000" font-family="sans-serif" font-size="17.5" lengthAdjust="spacing" textLength="205.5481" x="21.25" y="558.2361">&#8226; Structured log events</text></g><!--entity OTel--><g class="entity" data-entity="OTel" data-source-line="14" data-uid="ent0007" id="entity_OTel"><rect fill="#F1F1F1" height="86.1133" rx="3.125" ry="3.125" style="stroke:#181818;stroke-width:0.625;" width="282.5696" x="2011.875" y="488.75"/><text fill="#000000" font-family="sans-serif" font-size="17.5" lengthAdjust="spacing" textLength="257.5696" x="2024.375" y="517.4939">Observability.OpenTelemetry</text><text fill="#000000" font-family="sans-serif" font-size="17.5" lengthAdjust="spacing" textLength="226.9617" x="2024.375" y="537.865">&#8226; ActivityTagger &amp; events</text><text fill="#000000" font-family="sans-serif" font-size="17.5" lengthAdjust="spacing" textLength="200.498" x="2024.375" y="558.2361">&#8226; OTLP/exporter wiring</text></g><!--entity Backends--><g class="entity" data-entity="Backends" data-source-line="15" data-uid="ent0008" id="entity_Backends"><path d="M1975.5478,681.6621 C1983.4828,669.4217 1994.5288,671.7781 2000.1954,683.9522 C2007.6352,670.4525 2017.6281,671.719 2026.9828,681.7746 C2036.6072,669.334 2045.0076,668.0684 2053.5454,682.8354 C2060.925,668.6317 2069.8524,667.68 2079.8474,680.2677 C2087.6811,671.1563 2097.5285,670.1182 2102.7544,682.9855 C2110.3905,669.7175 2119.8818,671.338 2127.7852,682.7138 C2135.4461,668.6957 2144.2733,665.6459 2155.8468,678.6508 C2166.0412,667.1723 2175.3115,668.3736 2183.5622,680.8955 C2189.8144,668.8748 2200.7207,669.2469 2207.963,679.8265 C2216.6069,671.3733 2226.3799,672.3493 2231.5316,683.934 C2239.0152,670.1435 2251.7844,669.1918 2261.0718,681.9252 C2268.1928,669.0335 2280.484,670.5187 2285.9479,683.5173 C2292.99,670.6636 2306.1101,671.6129 2312.5208,684.1773 C2320.1653,673.1953 2328.6652,674.4023 2335.4273,685.1091 C2351.8459,689.183 2352.4223,699.7997 2342.9049,711.2831 C2356.6015,722.8078 2351.8325,734.3511 2337.108,740.1729 C2328.6181,754.2101 2317.2536,752.115 2308.7896,740.1446 C2304.4528,754.1196 2291.8473,755.8505 2282.7142,745.2294 C2274.6764,758.0015 2262.6455,754.044 2257.3593,742.3751 C2250.088,753.2394 2241.1097,755.5092 2233.6148,742.5984 C2225.144,757.8494 2216.8413,757.3071 2206.5661,744.3271 C2199.7981,755.4658 2187.937,760.0143 2179.8134,745.755 C2174.3205,757.1473 2163.8699,757.5689 2156.219,748.2084 C2148.0668,760.3379 2134.9213,759.7141 2128.1464,746.6724 C2122.1777,759.1617 2110.8595,756.1732 2104.9449,746.6156 C2097.4742,761.1439 2084.3406,760.1125 2078.0224,745.5491 C2069.8916,757.1034 2058.7972,759.3196 2051.4425,744.7593 C2041.6742,753.9393 2034.2185,752.1298 2027.5204,741.1213 C2018.9595,752.865 2011.0754,753.4492 2002.7623,740.8691 C1995.301,755.1797 1985.2686,755.0936 1976.4694,742.1603 C1960.0022,738.1346 1952.0182,730.6491 1962.9767,713.6459 C1953.6706,699.5465 1957.8628,685.1527 1975.5478,681.6621" fill="#F1F1F1" style="stroke:#181818;stroke-width:0.625;"/><text fill="#000000" font-family="sans-serif" font-size="17.5" lengthAdjust="spacing" textLength="179.4434" x="1981.875" y="706.2439">Telemetry Backends</text><text fill="#000000" font-family="sans-serif" font-size="17.5" lengthAdjust="spacing" textLength="342.9675" x="1981.875" y="726.615">(Zipkin / Jaeger / Tempo / App Insights)</text></g><g class="entity" data-entity="GMN17" data-source-line="27" data-uid="ent0018" id="entity_GMN17"><path d="M2491.875,295 L2491.875,364.248 L3107.2034,364.248 L3107.2034,307.5 L3094.7034,295 L2491.875,295" fill="#FEFFDD" style="stroke:#181818;stroke-width:0.625;"/><path d="M3094.7034,295 L3094.7034,307.5 L3107.2034,307.5 L3094.7034,295" fill="#FEFFDD" style="stroke:#181818;stroke-width:1.25;"/><text fill="#000000" font-family="sans-serif" font-size="16.25" lengthAdjust="spacing" textLength="451.2073" x="2499.375" y="316.3336">Demo.Api orchestrates the stack: it exposes endpoints,</text><text fill="#000000" font-family="sans-serif" font-size="16.25" lengthAdjust="spacing" textLength="589.0784" x="2499.375" y="335.2496">emits domain errors (Errors.Abstractions), delegates exception handling</text><text fill="#000000" font-family="sans-serif" font-size="16.25" lengthAdjust="spacing" textLength="566.33" x="2499.375" y="354.1656">to Errors.AspNetCore, and wires shared logging + telemetry defaults.</text></g><g class="entity" data-entity="GMN20" data-source-line="33" data-uid="ent0021" id="entity_GMN20"><path d="M1748.75,285 L1748.75,324.375 L1704.7375,329.375 L1748.75,334.375 L1748.75,373.1641 A0,0 0 0 0 1748.75,373.1641 L2127.9694,373.1641 A0,0 0 0 0 2127.9694,373.1641 L2127.9694,297.5 L2115.4694,285 L1748.75,285 A0,0 0 0 0 1748.75,285" fill="#FEFFDD" style="stroke:#181818;stroke-width:0.625;"/><path d="M2115.4694,285 L2115.4694,297.5 L2127.9694,297.5 L2115.4694,285" fill="#FEFFDD" style="stroke:#181818;stroke-width:0.625;"/><text fill="#000000" font-family="sans-serif" font-size="16.25" lengthAdjust="spacing" textLength="131.9757" x="1756.25" y="306.3336">Responsibilities:</text><text fill="#000000" font-family="sans-serif" font-size="16.25" lengthAdjust="spacing" textLength="352.9694" x="1756.25" y="325.2496">&#8226; Resolve exceptions via Strategy mappers</text><text fill="#000000" font-family="sans-serif" font-size="16.25" lengthAdjust="spacing" textLength="285.3351" x="1756.25" y="344.1656">&#8226; Sanitize &amp; format ProblemDetails</text><text fill="#000000" font-family="sans-serif" font-size="16.25" lengthAdjust="spacing" textLength="294.2773" x="1756.25" y="363.0817">&#8226; Enrich spans/logs before response</text></g><g class="entity" data-entity="GMN23" data-source-line="40" data-uid="ent0024" id="entity_GMN23"><path d="M336.25,497.5 L336.25,526.875 L292.65,531.875 L336.25,536.875 L336.25,566.748 A0,0 0 0 0 336.25,566.748 L924.8944,566.748 A0,0 0 0 0 924.8944,566.748 L924.8944,510 L912.3944,497.5 L336.25,497.5 A0,0 0 0 0 336.25,497.5" fill="#FEFFDD" style="stroke:#181818;stroke-width:0.625;"/><path d="M912.3944,497.5 L912.3944,510 L924.8944,510 L912.3944,497.5" fill="#FEFFDD" style="stroke:#181818;stroke-width:0.625;"/><text fill="#000000" font-family="sans-serif" font-size="16.25" lengthAdjust="spacing" textLength="131.9757" x="343.75" y="518.8336">Responsibilities:</text><text fill="#000000" font-family="sans-serif" font-size="16.25" lengthAdjust="spacing" textLength="381.6687" x="343.75" y="537.7496">&#8226; Apply logging conventions (providers, levels)</text><text fill="#000000" font-family="sans-serif" font-size="16.25" lengthAdjust="spacing" textLength="562.3944" x="343.75" y="556.6656">&#8226; Supply ILogger used inside GlobalExceptionHandler and controllers</text></g><g class="entity" data-entity="GMN26" data-source-line="46" data-uid="ent0027" id="entity_GMN26"><path d="M2338.125,497.5 L2338.125,526.875 L2294.425,531.875 L2338.125,536.875 L2338.125,566.748 A0,0 0 0 0 2338.125,566.748 L2895.5707,566.748 A0,0 0 0 0 2895.5707,566.748 L2895.5707,510 L2883.0707,497.5 L2338.125,497.5 A0,0 0 0 0 2338.125,497.5" fill="#FEFFDD" style="stroke:#181818;stroke-width:0.625;"/><path d="M2883.0707,497.5 L2883.0707,510 L2895.5707,510 L2883.0707,497.5" fill="#FEFFDD" style="stroke:#181818;stroke-width:0.625;"/><text fill="#000000" font-family="sans-serif" font-size="16.25" lengthAdjust="spacing" textLength="131.9757" x="2345.625" y="518.8336">Responsibilities:</text><text fill="#000000" font-family="sans-serif" font-size="16.25" lengthAdjust="spacing" textLength="389.2145" x="2345.625" y="537.7496">&#8226; Configure ActivitySource, samplers, exporters</text><text fill="#000000" font-family="sans-serif" font-size="16.25" lengthAdjust="spacing" textLength="531.1957" x="2345.625" y="556.6656">&#8226; Supply ActivityTagger/EventFactory used by Errors.AspNetCore</text></g><g class="entity" data-entity="GMN29" data-source-line="52" data-uid="ent0030" id="entity_GMN29"><path d="M969.375,497.5 L969.375,566.748 A0,0 0 0 0 969.375,566.748 L1476.8091,566.748 A0,0 0 0 0 1476.8091,566.748 L1476.8091,536.875 L1520.4875,531.875 L1476.8091,526.875 L1476.8091,510 L1464.3091,497.5 L969.375,497.5 A0,0 0 0 0 969.375,497.5" fill="#FEFFDD" style="stroke:#181818;stroke-width:0.625;"/><path d="M1464.3091,497.5 L1464.3091,510 L1476.8091,510 L1464.3091,497.5" fill="#FEFFDD" style="stroke:#181818;stroke-width:0.625;"/><text fill="#000000" font-family="sans-serif" font-size="16.25" lengthAdjust="spacing" textLength="131.9757" x="976.875" y="518.8336">Responsibilities:</text><text fill="#000000" font-family="sans-serif" font-size="16.25" lengthAdjust="spacing" textLength="436.8298" x="976.875" y="537.7496">&#8226; Define shared error contracts for the entire solution</text><text fill="#000000" font-family="sans-serif" font-size="16.25" lengthAdjust="spacing" textLength="481.1841" x="976.875" y="556.6656">&#8226; Allow Demo.Api + mappers to share ErrorCode metadata</text></g><!--link Demo to ErrorsAsp--><g class="link" data-entity-1="Demo" data-entity-2="ErrorsAsp" data-source-line="17" data-uid="lnk9" id="link_Demo_ErrorsAsp"><path d="M1559.375,177.9844 C1559.375,178.2255 1559.375,178.4671 1559.375,178.7091 C1559.375,179.1933 1559.375,179.6793 1559.375,180.1673 C1559.375,182.1191 1559.375,184.1012 1559.375,186.1094 C1559.375,218.2406 1559.375,249.5688 1559.375,278.5" fill="none" id="Demo-to-ErrorsAsp" style="stroke:#181818;stroke-width:1.25;"/><polygon fill="#181818" points="1559.375,286,1564.375,274.75,1559.375,279.75,1554.375,274.75,1559.375,286" style="stroke:#181818;stroke-width:1.25;"/><text fill="#000000" font-family="sans-serif" font-size="16.25" lengthAdjust="spacing" textLength="157.1124" x="1560.625" y="223.8336">AddErrorHandling()</text><text fill="#000000" font-family="sans-serif" font-size="16.25" lengthAdjust="spacing" textLength="149.892" x="1564.2352" y="242.7496">Exception pipeline</text></g><!--link Demo to LoggingCore--><g class="link" data-entity-1="Demo" data-entity-2="LoggingCore" data-source-line="18" data-uid="lnk10" id="link_Demo_LoggingCore"><path d="M1549.3569,128.9252 C1549.017,129.0159 1548.6691,129.1089 1548.3132,129.2039 C1547.6013,129.3941 1546.8575,129.5928 1546.0826,129.7998 C1544.5327,130.214 1542.858,130.6617 1541.0644,131.1414 C1537.4772,132.1009 1533.4143,133.1886 1528.9219,134.3926 C1510.9523,139.2086 1486.1125,145.8859 1457.3719,153.6656 C1399.8906,169.225 1326.8063,189.1938 1261.875,207.5 C912.5875,305.975 510.1798,424.2239 299.2548,486.5739" fill="none" id="Demo-to-LoggingCore" style="stroke:#181818;stroke-width:1.25;"/><polygon fill="#181818" points="292.0625,488.7,304.2684,490.3058,298.0561,486.9283,301.4336,480.716,292.0625,488.7" style="stroke:#181818;stroke-width:1.25;"/><text fill="#000000" font-family="sans-serif" font-size="16.25" lengthAdjust="spacing" textLength="168.5541" x="975.625" y="325.7086">AddDefaultLogging()</text><text fill="#000000" font-family="sans-serif" font-size="16.25" lengthAdjust="spacing" textLength="158.3978" x="980.7031" y="344.6246">configure providers</text></g><!--link Demo to OTel--><g class="link" data-entity-1="Demo" data-entity-2="OTel" data-source-line="19" data-uid="lnk11" id="link_Demo_OTel"><path d="M1568.2919,177.7676 C1568.3968,177.9988 1568.503,178.2294 1568.6104,178.4594 C1572.0461,185.8188 1576.7344,192.55 1583.125,197.5 C1595.8875,207.3875 1712.1,205.475 1728.125,207.5 C1917,231.3125 2016.45,148.725 2149.375,285 C2201.4875,338.425 2186.239,426.3953 2170.014,481.2703" fill="none" id="Demo-to-OTel" style="stroke:#181818;stroke-width:1.25;"/><polygon fill="#181818" points="2167.8875,488.4625,2175.8721,479.0919,2169.6596,482.469,2166.2825,476.2565,2167.8875,488.4625" style="stroke:#181818;stroke-width:1.25;"/><text fill="#000000" font-family="sans-serif" font-size="16.25" lengthAdjust="spacing" textLength="230.1343" x="2184.375" y="325.7086">AddDefaultOpenTelemetry()</text><text fill="#000000" font-family="sans-serif" font-size="16.25" lengthAdjust="spacing" textLength="162.3492" x="2218.2675" y="344.6246">build ActivitySource</text></g><!--link Demo to ErrorsAbs--><g class="link" data-entity-1="Demo" data-entity-2="ErrorsAbs" data-source-line="20" data-uid="lnk12" id="link_Demo_ErrorsAbs"><path d="M1549.2879,127.4829 C1548.4795,127.5926 1547.6265,127.7105 1546.7302,127.8368 C1539.5593,128.8475 1529.6167,130.3989 1517.6295,132.6557 C1493.6551,137.1691 1461.5023,144.5039 1426.9891,155.9766 C1357.9625,178.9219 1279.4938,218.4188 1238.125,285 C1199.1,347.8125 1193.85,397.2625 1244.375,451.25 C1283.325,492.875 1442.2375,477.5125 1498.125,488.75 C1505.4625,490.225 1505.6405,490.2006 1513.1905,491.8756" fill="none" id="Demo-to-ErrorsAbs" style="stroke:#181818;stroke-width:1.25;"/><polygon fill="#181818" points="1520.5125,493.5,1510.6125,486.1821,1514.4109,492.1463,1508.4466,495.9447,1520.5125,493.5" style="stroke:#181818;stroke-width:1.25;"/><text fill="#000000" font-family="sans-serif" font-size="16.25" lengthAdjust="spacing" textLength="140.5609" x="1245.1236" y="325.7086">Throws IAppError</text><text fill="#000000" font-family="sans-serif" font-size="16.25" lengthAdjust="spacing" textLength="152.0581" x="1239.375" y="344.6246">returns Result&lt;T&gt;</text></g><!--link ErrorsAsp to ErrorsAbs--><g class="link" data-entity-1="ErrorsAsp" data-entity-2="ErrorsAbs" data-source-line="21" data-uid="lnk13" id="link_ErrorsAsp_ErrorsAbs"><path d="M1580.8625,372.55 C1598.3,406.575 1619.342,447.6379 1636.817,481.7379" fill="none" id="ErrorsAsp-to-ErrorsAbs" style="stroke:#181818;stroke-width:1.25;stroke-dasharray:8.75,8.75;"/><polygon fill="#181818" points="1640.2375,488.4125,1639.5565,476.1203,1637.3871,482.8503,1630.657,480.6809,1640.2375,488.4125" style="stroke:#181818;stroke-width:1.25;"/><text fill="#000000" font-family="sans-serif" font-size="16.25" lengthAdjust="spacing" textLength="212.0435" x="1621.875" y="436.9586">Maps ErrorCode/IAppError</text></g><!--link ErrorsAsp to LoggingCore--><g class="link" data-entity-1="ErrorsAsp" data-entity-2="LoggingCore" data-source-line="22" data-uid="lnk14" id="link_ErrorsAsp_LoggingCore"><path d="M1414.35,367.275 C1402.975,369.6375 1391.6375,371.8375 1380.625,373.75 C1145.825,414.5625 548.8875,446.3375 314.375,488.75 C307.3,490.025 307.4175,489.9208 300.155,491.4333" fill="none" id="ErrorsAsp-to-LoggingCore" style="stroke:#181818;stroke-width:1.25;"/><polygon fill="#181818" points="292.8125,492.9625,304.8456,495.5637,298.9312,491.6882,302.8068,485.7738,292.8125,492.9625" style="stroke:#181818;stroke-width:1.25;"/><text fill="#000000" font-family="sans-serif" font-size="16.25" lengthAdjust="spacing" textLength="141.1481" x="1045.625" y="427.5836">ILogger&lt;&gt; scope</text><text fill="#000000" font-family="sans-serif" font-size="16.25" lengthAdjust="spacing" textLength="115.1703" x="1058.6139" y="446.4996">ApiLog events</text></g><!--link ErrorsAsp to OTel--><g class="link" data-entity-1="ErrorsAsp" data-entity-2="OTel" data-source-line="23" data-uid="lnk15" id="link_ErrorsAsp_OTel"><path d="M1704.425,368.8375 C1749.5375,381.475 1799.2625,396.1875 1844.375,411.25 C1914.425,434.6375 1984.9796,461.8255 2044.8171,485.9005" fill="none" id="ErrorsAsp-to-OTel" style="stroke:#181818;stroke-width:1.25;"/><polygon fill="#181818" points="2051.775,488.7,2043.2044,479.8622,2045.9767,486.3671,2039.4718,489.1394,2051.775,488.7" style="stroke:#181818;stroke-width:1.25;"/><text fill="#000000" font-family="sans-serif" font-size="16.25" lengthAdjust="spacing" textLength="155.7477" x="1979.8694" y="427.5836">ISpanEnricher uses</text><text fill="#000000" font-family="sans-serif" font-size="16.25" lengthAdjust="spacing" textLength="201.7365" x="1956.875" y="446.4996">IActivityTagger + events</text></g><!--link OTel to Backends--><g class="link" data-entity-1="OTel" data-entity-2="Backends" data-source-line="24" data-uid="lnk16" id="link_OTel_Backends"><path d="M2153.125,575.3375 C2153.125,604.4625 2153.125,635.375 2153.125,663.6125" fill="none" id="OTel-to-Backends" style="stroke:#181818;stroke-width:1.25;"/><polygon fill="#181818" points="2153.125,671.1125,2158.125,659.8625,2153.125,664.8625,2148.125,659.8625,2153.125,671.1125" style="stroke:#181818;stroke-width:1.25;"/><text fill="#000000" font-family="sans-serif" font-size="16.25" lengthAdjust="spacing" textLength="146.1865" x="2154.375" y="628.8336">OTLP/AI exporters</text></g><!--link Demo to GMN17--><g class="link" data-entity-1="Demo" data-entity-2="GMN17" data-source-line="27" data-uid="lnk19" id="link_Demo_GMN17"><path d="M1567.905,177.7257 C1567.9573,177.8411 1568.0098,177.9563 1568.0627,178.0714 C1568.1684,178.3016 1568.2754,178.5311 1568.3836,178.76 C1571.8469,186.0836 1576.6031,192.725 1583.125,197.5 C1598.025,208.4125 2229.775,205.375 2248.125,207.5 C2399.2125,224.9875 2569.7875,265.625 2680.6375,294.9125" fill="none" id="Demo-GMN17" style="stroke:#181818;stroke-width:1.25;stroke-dasharray:8.75,8.75;"/></g><!--SRC=[VLRRRYCt37sVho3yi9iWZjqMw4km2E1DqiP5sWIrWG95NZGpz5YDHX8asLblKM2_PJ-jNz8ZpTNPf4_6YEBX8Nb8-Jtzh4mk54aTs8aYIAEfbA9oeYQ_DSzILuGV4ahHZsIT-OkBuAamIedSE15ubhqFCYYcAyL2tpXdt1_6FNawxx2N0tRcdwIsea4NPOE_4Shpo5AOsXhDEgp20RWE4OMkrFXAQILz_yDtMTORQNBDjPajh7pK_txvIhV6WsSjjQn1OV6mzCtvxrn93puUAM-SeBqKTBsSaF0K0UZlZ0O2DBbThn_eHfVMe48-NUk_id-oR7GrfUvd2sz_ut1b73S1coBSV2hOnWhS2bqgTetjLs4jEsGOERa3dP4NMWRv6VoQM0aJaAy5ok7JbBNDBHckJCdq3ddwdGeVrfUDwThKGkfpRxcG6raGTtoEukH-7EVEL1NwCnjoQKy-xgGgmRimUe-R0u5LSBiYx1oNf4n57ArDWDOpGer3tEUUtLxaKibmcDrRrcjMN3EAqI0kaDyUjhMeAaHyrs8snllrtSESFrdZq51wbWuHKhHxe6I5ChkI9ZqWVHJ54-iIpYT_IWijqPn-4HnnvxHcaCBlmbe8rijg6_nf0klSiYm9vFpyScWBNT1aKPRfEtKM34vE7tNVRhBICavvCdYFQj7wN_D6e5kj8GAWj1jPeP9nvlQoZ88O469-nwv7fOi0UUnHNxwLsRbYpA5lU8HPRvrvzhH4xkdyKJj65xKVL3J9XfndinV-aB4Vn3VlSSPEhoI-ZD_iFboIBuo5n32yTuDiNZXtEIzN5cj6ErbiqRYTP_Hp-K8cPpr6yehkNHSZHDBDOacTT70lqoOmvIO4KvFPf5s0JT3j538EuUAy1VOKjam-0F22P4WeO47SxOKf7BcMM3zbcZhYb0YTl3AufrCgqROguVP3ITjMIq0AXhxPB5E2FGeUJjYZxRp5sYBrq0k-RBJXPncuKSompTD5USSqX_r2iTSOIo_JC4hs5pXhDgOtQi-ZbP6MvYeLepfGdPQORs-lsWM6KTqOLuj03yxaO7JDGKZLNMiQI1wzz7DmzvJp9kh2DIpuJShZJV8sQKXG7VgYZ1OLdVG3DIK5cIX_sb7V9QTMbb5Q9Hu9ZxjlBF7K1M07X-Smbk0jpcaVlKtsgX_sutcTuZcehKfKUwqUapqM_lmcflaJj6NG_fH0VlXMFYzvAjwCrP3x_-6AVODjrgakARifWOZ_2z32D1sns4W7mjcbPxzjYbBuAz7Fr5addQZn13XwmQ1WKOeWUgx_0G00]--></g></svg>